<?xml version="1.0" standalone="no"?>
<!DOCTYPE svg PUBLIC "-//W3C//DTD SVG 1.1//EN" "http://www.w3.org/Graphics/SVG/1.1/DTD/svg11.dtd" >
<!--
2013-9-30: Created.
-->
<svg>
<metadata>
Created by iconfont
</metadata>
<defs>

<font id="fontfamily" horiz-adv-x="1024" >
  <font-face
    font-family="fontfamily"
    font-weight="500"
    font-stretch="normal"
    units-per-em="1024"
    ascent="896"
    descent="-128"
  />
    <missing-glyph />
    
    <glyph glyph-name="x" unicode="x" horiz-adv-x="1001"
d="M281 543q-27 -1 -53 -1h-83q-18 0 -36.5 -6t-32.5 -18.5t-23 -32t-9 -45.5v-76h912v41q0 16 -0.5 30t-0.5 18q0 13 -5 29t-17 29.5t-31.5 22.5t-49.5 9h-133v-97h-438v97zM955 310v-52q0 -23 0.5 -52t0.5 -58t-10.5 -47.5t-26 -30t-33 -16t-31.5 -4.5q-14 -1 -29.5 -0.5
t-29.5 0.5h-32l-45 128h-439l-44 -128h-29h-34q-20 0 -45 1q-25 0 -41 9.5t-25.5 23t-13.5 29.5t-4 30v167h911zM163 247q-12 0 -21 -8.5t-9 -21.5t9 -21.5t21 -8.5q13 0 22 8.5t9 21.5t-9 21.5t-22 8.5zM316 123q-8 -26 -14 -48q-5 -19 -10.5 -37t-7.5 -25t-3 -15t1 -14.5
t9.5 -10.5t21.5 -4h37h67h81h80h64h36q23 0 34 12t2 38q-5 13 -9.5 30.5t-9.5 34.5q-5 19 -11 39h-368zM336 498v228q0 11 2.5 23t10 21.5t20.5 15.5t34 6h188q31 0 51.5 -14.5t20.5 -52.5v-227h-327z" />
    

    
    <glyph glyph-name="yd-icon-arrow-left" unicode="&#58881;" d="M765.655061-128a21.310353 21.310353 0 0 0-14.761525 5.930208L243.583413 365.124552a21.331685 21.331685 0 0 0-0.021332 30.738958C436.763149 582.3877600000001 728.580593 865.267229 747.587124 886.897557a21.310353 21.310353 0 0 0 37.586429-19.305175c-2.175832-6.228852-4.18101-12.073733-496.046993-487.02369l491.290027-471.835531A21.331685 21.331685 0 0 0 765.655061-128z"  horiz-adv-x="1024" />

    
    <glyph glyph-name="yd-icon-arrow-up" unicode="&#58882;" d="M21.333333 108.99199999999996a21.333333 21.333333 0 0 0-15.381333 36.096l487.232 507.349333a21.290667 21.290667 0 0 0 15.36 6.549334h0.021333a21.333333 21.333333 0 0 0 15.36-6.528c186.453333-193.152 469.290667-484.885333 491.029334-504a21.333333 21.333333 0 0 0 7.914666-24.341334 21.226667 21.226667 0 0 0-27.072-13.312c-6.293333 2.133333-12.202667 4.117333-487.189333 496.064l-471.893333-491.306666a21.205333 21.205333 0 0 0-15.381334-6.570667z"  horiz-adv-x="1024" />

    
    <glyph glyph-name="yd-icon-back" unicode="&#58883;" d="M178.176 352.256c89.088-81.92 267.264-246.784 356.352-328.704-11.264-11.264-32.768-34.816-44.032-46.08C379.904 78.84799999999996 159.744 282.624 49.152 384c110.592 101.376 330.752 305.152 441.344 406.528 11.264-11.264 32.768-34.816 44.032-46.08-89.088-81.92-267.264-246.784-356.352-328.704h782.336v-63.488H178.176z"  horiz-adv-x="1024" />

    
    <glyph glyph-name="yd-icon-bell" unicode="&#58884;" d="M543.744 769.024c82.944-10.24 151.552-44.032 204.8-103.424s80.896-130.048 82.944-214.016v-319.488h96.256v-63.488H640c-1.024-35.84-13.312-66.56-37.888-90.112s-54.272-36.864-90.112-37.888c-35.84 1.024-66.56 13.312-90.112 37.888s-36.864 54.272-37.888 90.112H96.256v63.488h96.256V451.584c2.048 83.968 29.696 155.648 82.944 214.016s121.856 93.184 204.8 103.424V834.56h63.488v-65.536zM768 130.048V449.536c-2.048 72.704-26.624 133.12-74.752 181.248S584.704 704.512 512 706.56c-72.704-2.048-133.12-26.624-181.248-74.752S258.048 523.264 256 450.56v-319.488c128-1.024 384-1.024 512-1.024zM575.488 66.55999999999995H447.488c1.024-17.408 8.192-31.744 20.48-43.008S494.592 5.1200000000000045 512 5.1200000000000045s31.744 6.144 44.032 17.408 18.432 26.624 19.456 44.032z"  horiz-adv-x="1024" />

    
    <glyph glyph-name="yd-icon-caret-right" unicode="&#58885;" d="M384 703.488v-640C480.256 144.38400000000001 671.744 304.12800000000004 768 384c-96.256 79.872-287.744 239.616-384 319.488z"  horiz-adv-x="1024" />

    
    <glyph glyph-name="yd-icon-caret-left" unicode="&#58886;" d="M671.744 703.488C575.488 623.616 384 463.872 287.744 384c96.256-79.872 287.744-239.616 384-319.488V703.488z"  horiz-adv-x="1024" />

    
    <glyph glyph-name="yd-icon-caret-bottom" unicode="&#58887;" d="M999.850667 800A21.376 21.376 0 0 1 981.333333 810.666667H42.666667a21.376 21.376 0 0 1-18.474667-32l469.333333-810.666667a21.290667 21.290667 0 0 1 36.949334 0l469.333333 810.666667a21.504 21.504 0 0 1 0.042667 21.333333z"  horiz-adv-x="1024" />

    
    <glyph glyph-name="yd-icon-check" unicode="&#58888;" d="M406.528 185.34400000000005c-58.368 58.368-175.104 174.08-233.472 232.448l-45.056-45.056 278.528-278.528c133.12 134.144 400.384 401.408 533.504 534.528l-45.056 45.056C774.144 551.9359999999999 529.408 307.20000000000005 406.528 185.34400000000005z"  horiz-adv-x="1024" />

    
    <glyph glyph-name="yd-icon-circle-check" unicode="&#58889;" d="M512 834.56c126.976-3.072 232.448-47.104 316.416-131.072s128-189.44 131.072-316.416c-3.072-126.976-47.104-232.448-131.072-316.416S638.976-58.36800000000005 512-61.440000000000055c-126.976 3.072-232.448 47.104-316.416 131.072S67.584 260.096 63.488 386.048c3.072 126.976 47.104 232.448 131.072 316.416S385.024 831.488 512 834.56z m0-831.488c108.544 3.072 198.656 39.936 271.36 112.64 72.704 72.704 109.568 162.816 112.64 271.36-3.072 108.544-39.936 198.656-112.64 271.36S620.544 768 512 771.072c-108.544-3.072-198.656-39.936-271.36-112.64s-109.568-162.816-112.64-271.36c3.072-108.544 39.936-198.656 112.64-271.36 72.704-72.704 162.816-110.592 271.36-112.64zM311.296 408.576c32.768-33.792 98.304-102.4 131.072-136.192l296.96 296.96c11.264-11.264 33.792-34.816 45.056-46.08L441.344 180.22400000000005l-176.128 184.32c11.264 11.264 33.792 32.768 46.08 44.032z"  horiz-adv-x="1024" />

    
    <glyph glyph-name="yd-icon-circle-close" unicode="&#58890;" d="M512 832.512c126.976-3.072 232.448-47.104 316.416-131.072s128-190.464 132.096-317.44c-3.072-126.976-47.104-232.448-131.072-316.416S638.976-60.416000000000054 512-64.51199999999994c-126.976 3.072-232.448 47.104-316.416 131.072S67.584 257.024 63.488 384c3.072 126.976 47.104 232.448 131.072 316.416S385.024 828.4159999999999 512 832.512z m0-832.512c108.544 3.072 198.656 39.936 271.36 112.64 72.704 72.704 109.568 162.816 112.64 271.36-3.072 108.544-39.936 198.656-112.64 271.36S620.544 764.928 512 768c-108.544-3.072-198.656-39.936-271.36-112.64S131.072 492.544 128 384c3.072-108.544 39.936-198.656 112.64-271.36 72.704-72.704 162.816-109.568 271.36-112.64z m0 429.056c39.936 39.936 118.784 118.784 157.696 158.72l46.08-46.08C675.84 502.784 596.992 423.936 557.056 384c39.936-39.936 118.784-118.784 158.72-157.696l-46.08-46.08C630.784 220.15999999999997 551.936 299.00800000000004 512 338.94399999999996 472.064 299.00800000000004 393.216 220.15999999999997 354.304 180.22400000000005l-46.08 46.08C348.16 265.216 427.008 344.06399999999996 466.944 384 427.008 423.936 348.16 502.784 308.224 541.696l46.08 46.08C393.216 547.8399999999999 472.064 468.992 512 429.056z"  horiz-adv-x="1024" />

    
    <glyph glyph-name="yd-icon-caret-top" unicode="&#58891;" d="M999.808-10.240000000000009l-469.333333 810.666667c-7.594667 13.184-29.354667 13.184-36.906667 0l-469.333333-810.666667a21.333333 21.333333 0 0 1 18.474666-32h938.666667a21.376 21.376 0 0 1 18.517333 10.666667 21.632 21.632 0 0 1-0.085333 21.333333z"  horiz-adv-x="1024" />

    
    <glyph glyph-name="yd-icon-circle-close1" unicode="&#58892;" d="M512-128c-145.408 3.072-266.24 53.248-362.496 149.504S3.072 238.59199999999998 0 384c3.072 145.408 53.248 266.24 149.504 362.496S366.592 892.928 512 896c145.408-3.072 266.24-53.248 362.496-149.504S1020.928 529.408 1024 384c-3.072-145.408-53.248-266.24-149.504-362.496S657.408-124.928 512-128z m209.92 720.896c-10.24 9.216-21.504 14.336-34.816 14.336s-24.576-5.12-34.816-14.336C606.208 545.7919999999999 546.816 486.4 512 450.56c-33.792 33.792-102.4 102.4-137.216 136.192-9.216 9.216-20.48 14.336-32.768 14.336s-23.552-5.12-32.768-14.336c-9.216-9.216-14.336-20.48-14.336-32.768s5.12-23.552 14.336-32.768l136.192-136.192-142.336-142.336c-9.216-10.24-14.336-21.504-14.336-34.816s5.12-24.576 14.336-34.816c10.24-9.216 21.504-14.336 34.816-14.336s24.576 5.12 34.816 14.336C419.84 220.15999999999997 478.208 279.552 514.048 315.39200000000005l137.216-137.216c10.24-8.192 21.504-13.312 33.792-12.288s22.528 5.12 31.744 13.312c9.216 9.216 14.336 20.48 14.336 32.768s-4.096 23.552-12.288 33.792L581.632 382.976c35.84 34.816 106.496 105.472 142.336 141.312 9.216 10.24 14.336 21.504 14.336 34.816s-7.168 23.552-16.384 33.792z"  horiz-adv-x="1024" />

    
    <glyph glyph-name="yd-icon-circle-check1" unicode="&#58893;" d="M512 834.56c126.976-3.072 232.448-47.104 316.416-131.072s128-189.44 131.072-316.416c-3.072-126.976-47.104-232.448-131.072-316.416S638.976-58.36800000000005 512-61.440000000000055c-126.976 3.072-232.448 47.104-316.416 131.072S67.584 260.096 63.488 386.048c3.072 126.976 47.104 232.448 131.072 316.416S385.024 831.488 512 834.56zM311.296 408.576c-11.264-11.264-34.816-32.768-46.08-44.032l176.128-184.32 343.04 343.04c-11.264 11.264-33.792 34.816-45.056 46.08l-296.96-296.96c-32.768 33.792-98.304 102.4-131.072 136.192z"  horiz-adv-x="1024" />

    
    <glyph glyph-name="yd-icon-circle-plus" unicode="&#58894;" d="M480.256 415.744H256v-63.488h224.256V128h63.488V352.256H768v63.488H543.744V640h-63.488v-224.256zM512-64.51199999999994c-126.976 3.072-232.448 47.104-316.416 131.072S67.584 257.024 63.488 384c3.072 126.976 47.104 232.448 131.072 316.416S385.024 828.4159999999999 512 832.512c126.976-3.072 232.448-47.104 316.416-131.072s128-190.464 132.096-317.44c-3.072-126.976-47.104-232.448-131.072-316.416S638.976-60.416000000000054 512-64.51199999999994z"  horiz-adv-x="1024" />

    
    <glyph glyph-name="yd-icon-circle-plus-" unicode="&#58895;" d="M480.256 415.744V640h63.488v-224.256H768v-63.488H543.744V128h-63.488V352.256H256v63.488h224.256zM512-64.51199999999994c-126.976 3.072-232.448 47.104-316.416 131.072S67.584 257.024 63.488 384c3.072 126.976 47.104 232.448 131.072 316.416S385.024 828.4159999999999 512 832.512c126.976-3.072 232.448-47.104 316.416-131.072s128-190.464 132.096-317.44c-3.072-126.976-47.104-232.448-131.072-316.416S638.976-60.416000000000054 512-64.51199999999994z m0 64.512c108.544 3.072 198.656 39.936 271.36 112.64 72.704 72.704 109.568 162.816 112.64 271.36-3.072 108.544-39.936 198.656-112.64 271.36S620.544 764.928 512 768c-108.544-3.072-198.656-39.936-271.36-112.64S131.072 492.544 128 384c3.072-108.544 39.936-198.656 112.64-271.36 72.704-72.704 162.816-109.568 271.36-112.64z"  horiz-adv-x="1024" />

    
    <glyph glyph-name="yd-icon-d-arrow-left" unicode="&#58896;" d="M549.888 768c10.24-10.24 31.744-31.744 41.984-43.008L259.072 384l332.8-340.992c-10.24-10.24-31.744-31.744-41.984-43.008-93.184 96.256-280.576 287.744-373.76 384 93.184 96.256 280.576 287.744 373.76 384z m256 0c10.24-10.24 31.744-31.744 41.984-43.008L515.072 384l332.8-340.992c-10.24-10.24-31.744-31.744-41.984-43.008-93.184 96.256-280.576 287.744-373.76 384 93.184 96.256 280.576 287.744 373.76 384z"  horiz-adv-x="1024" />

    
    <glyph glyph-name="yd-icon-d-caret" unicode="&#58897;" d="M512 768c71.68-79.872 216.064-239.616 287.744-319.488H224.256c71.68 79.872 216.064 239.616 287.744 319.488zM224.256 320.51199999999994h575.488C728.064 239.61599999999999 583.68 79.87199999999996 512 0c-71.68 79.872-216.064 239.616-287.744 320.512z"  horiz-adv-x="1024" />

    
    <glyph glyph-name="yd-icon-d-arrow-righ" unicode="&#58898;" d="M474.112 768c93.184-96.256 280.576-287.744 373.76-384-93.184-96.256-280.576-287.744-373.76-384-10.24 10.24-31.744 31.744-41.984 43.008L764.928 384 432.128 724.992c10.24 11.264 31.744 32.768 41.984 43.008z m-256 0c93.184-96.256 280.576-287.744 373.76-384-93.184-96.256-280.576-287.744-373.76-384-10.24 10.24-31.744 31.744-41.984 43.008L508.928 384 176.128 724.992c10.24 11.264 31.744 32.768 41.984 43.008z"  horiz-adv-x="1024" />

    
    <glyph glyph-name="yd-icon-date" unicode="&#58899;" d="M128 512v-512h768V704.512H768v-63.488h-63.488v63.488H320.512v-63.488h-63.488v63.488H129.024v-128h768v-63.488c-192.512-1.024-577.536-1.024-769.024-1.024z m191.488 256h384V831.488h63.488v-63.488h192.512v-831.488H63.488V768H256V831.488h63.488v-63.488zM256 384h128v-63.488H256V384z m0-192.512h128V128H256v63.488zM448.512 384h128v-63.488H448.512V384z m0-192.512h128V128H448.512v63.488zM640 384H768v-63.488H640V384z m0-192.512H768V128H640v63.488z"  horiz-adv-x="1024" />

    
    <glyph glyph-name="yd-icon-close" unicode="&#58900;" d="M787.456 703.488C717.824 634.88 580.608 497.664 512 429.056L236.544 704.512l-45.056-45.056L466.944 384 191.488 108.54399999999998l45.056-45.056L512 338.94399999999996l275.456-275.456 45.056 45.056L557.056 384l275.456 275.456c-11.264 11.264-33.792 33.792-45.056 44.032z"  horiz-adv-x="1024" />

    
    <glyph glyph-name="yd-icon-delete" unicode="&#58901;" d="M741.781333-128.0213329999999H282.218667c-89.472 0-162.261333 68.650667-162.261334 153.002666V740.096h42.666667v-715.114667c0-60.842667 53.653333-110.336 119.594667-110.336h459.562666c65.941333 0 119.573333 49.493333 119.573334 110.336V740.096h42.666666v-715.114667c0.021333-84.352-72.768-153.002667-162.24-153.002666zM1000.618667 718.762667H23.36a21.333333 21.333333 0 0 0 0 42.666666h977.258667a21.333333 21.333333 0 1 0 0-42.666666zM393.749333 19.200000000000045a21.333333 21.333333 0 0 0-21.333333 21.333333V592.832a21.333333 21.333333 0 0 0 42.666667 0V40.53333299999997a21.333333 21.333333 0 0 0-21.333334-21.333333zM630.250667 19.200000000000045a21.333333 21.333333 0 0 0-21.333334 21.333333V592.832a21.333333 21.333333 0 1 0 42.666667 0V40.53333299999997a21.333333 21.333333 0 0 0-21.333333-21.333333zM691.456 853.333333H332.544a21.333333 21.333333 0 0 0 0 42.666667h358.912a21.333333 21.333333 0 1 0 0-42.666667z"  horiz-adv-x="1024" />

    
    <glyph glyph-name="yd-icon-download" unicode="&#58902;" d="M736.256 442.368l45.056-45.056L512 128 242.688 397.312l45.056 45.056 192.512-192.512V768h63.488v-518.144l192.512 192.512zM192.512 0v63.488h640v-63.488H192.512z"  horiz-adv-x="1024" />

    
    <glyph glyph-name="yd-icon-edit-outline" unicode="&#58903;" d="M512 736.256v-63.488H192.512v-640h640V352.256h63.488v-384h-768v768H512z m312.32 63.488l136.192-136.192C862.208 566.2719999999999 665.6 370.688 568.32 273.408c-41.984-8.192-126.976-25.6-168.96-33.792 8.192 43.008 25.6 128 33.792 169.984C530.432 506.88 726.016 702.4639999999999 824.32 799.744zM491.52 376.832l-12.288-57.344 57.344 12.288 331.776 331.776c-11.264 11.264-33.792 34.816-45.056 46.08-81.92-82.944-247.808-249.856-331.776-332.8z"  horiz-adv-x="1024" />

    
    <glyph glyph-name="yd-icon-document" unicode="&#58904;" d="M128 832.512H512v-63.488H192.512v-768h640v512h63.488v-575.488h-768V832.512z m384 0c96.256-79.872 287.744-239.616 384-319.488H512V832.512z m63.488-137.216v-118.784h143.36l-143.36 118.784zM256 128v63.488h512V128H256z m0 192.512V384h512v-63.488H256z"  horiz-adv-x="1024" />

    
    <glyph glyph-name="yd-icon-error" unicode="&#58905;" d="M512 832.512c126.976-3.072 232.448-47.104 316.416-131.072s128-190.464 132.096-317.44c-3.072-126.976-47.104-232.448-131.072-316.416S638.976-60.416000000000054 512-64.51199999999994c-126.976 3.072-232.448 47.104-316.416 131.072S67.584 257.024 63.488 384c3.072 126.976 47.104 232.448 131.072 316.416S385.024 828.4159999999999 512 832.512z m0-403.456C472.064 468.992 393.216 547.8399999999999 354.304 587.7760000000001l-46.08-46.08C348.16 502.784 427.008 423.936 466.944 384 427.008 344.06399999999996 348.16 265.216 308.224 226.30399999999997l46.08-46.08C393.216 220.15999999999997 472.064 299.00800000000004 512 338.94399999999996c39.936-39.936 118.784-118.784 157.696-158.72l46.08 46.08C675.84 265.216 596.992 344.06399999999996 557.056 384c39.936 39.936 118.784 118.784 158.72 157.696l-46.08 46.08C630.784 547.8399999999999 551.936 468.992 512 429.056z"  horiz-adv-x="1024" />

    
    <glyph glyph-name="yd-icon-edit" unicode="&#58908;" d="M21.382021-128a21.522311 21.522311 0 0 0-15.127592 6.225695 21.240605 21.240605 0 0 0-4.704485 23.01535l85.41315 213.561046a21.127923 21.127923 0 0 0 4.732655 7.211664L834.440839 864.420798c42.114993 42.114993 115.499312 42.114993 157.755158 0a111.330069 111.330069 0 0 0 0-158.290399C384.556932 105.75933999999995 267.198363-15.064209000000005 253.620151-31.515817999999967a21.550481 21.550481 0 0 0-10.761156-9.521651L29.29795-126.45061899999996a21.156094 21.156094 0 0 0-7.915929-1.549381z m103.611335 222.913673L59.693988-68.27840400000002l164.487923 65.778266c33.184924 39.861348 170.460083 178.291499 737.815241 739.054746a68.567153 68.567153 0 0 1 0.225365 97.41381c-26.621183 26.564842-71.553232 26.254966-97.554663 0.309876zM256.211843-21.233563000000004a21.437799 21.437799 0 0 0-15.127593 6.225695L112.936354 113.14002800000003a21.353287 21.353287 0 0 0 30.198845 30.198844l128.147895-128.147895a21.325117 21.325117 0 0 0-15.071251-36.42454zM854.272916 576.742999a21.437799 21.437799 0 0 0-15.127593 6.225694l-128.147896 128.147896a21.353287 21.353287 0 0 0 30.198845 30.198844l128.147895-128.147895a21.325117 21.325117 0 0 0-15.071251-36.424539z"  horiz-adv-x="1024" />

    
    <glyph glyph-name="yd-icon-info" unicode="&#58909;" d="M512 832.512c126.976-3.072 232.448-47.104 316.416-131.072s128-190.464 132.096-317.44c-3.072-126.976-47.104-232.448-131.072-316.416S638.976-60.416000000000054 512-64.51199999999994c-126.976 3.072-232.448 47.104-316.416 131.072S67.584 257.024 63.488 384c3.072 126.976 47.104 232.448 131.072 316.416S385.024 828.4159999999999 512 832.512z m66.56-275.456c17.408 0 31.744 5.12 43.008 15.36s17.408 24.576 17.408 41.984-6.144 30.72-17.408 41.984-25.6 14.336-43.008 14.336c-16.384 0-30.72-5.12-41.984-15.36s-17.408-24.576-17.408-41.984 6.144-30.72 17.408-41.984c11.264-9.216 25.6-14.336 41.984-14.336z m12.288-360.448c0 4.096 0 9.216 1.024 16.384s1.024 13.312 0 19.456c-17.408-20.48-39.936-46.08-53.248-61.44-5.12-6.144-11.264-10.24-16.384-14.336s-10.24-4.096-14.336-3.072c-6.144 3.072-8.192 7.168-8.192 14.336 29.696 92.16 65.536 207.872 88.064 277.504 3.072 18.432 0 34.816-9.216 48.128s-24.576 21.504-45.056 23.552c-23.552-1.024-49.152-10.24-76.8-29.696s-52.224-43.008-72.704-72.704v-15.36c-1.024-7.168-1.024-13.312 0-19.456 17.408 20.48 39.936 46.08 53.248 61.44 5.12 6.144 11.264 10.24 16.384 14.336s10.24 4.096 13.312 3.072c7.168-3.072 9.216-8.192 7.168-16.384-28.672-92.16-65.536-206.848-87.04-276.48-5.12-16.384-2.048-31.744 7.168-44.032s25.6-21.504 49.152-26.624c33.792 1.024 61.44 10.24 83.968 28.672s44.032 44.032 63.488 72.704z"  horiz-adv-x="1024" />

    
    <glyph glyph-name="yd-icon-goods" unicode="&#58910;" d="M319.488 591.8720000000001v21.504c1.024 57.344 20.48 105.472 56.32 143.36s81.92 58.368 136.192 59.392c54.272-1.024 100.352-21.504 136.192-59.392s54.272-86.016 56.32-143.36v-21.504h159.744c16.384-159.744 48.128-480.256 63.488-640H96.256c16.384 159.744 48.128 480.256 63.488 640h159.744z m64.512 0h256v21.504c-1.024 38.912-13.312 71.68-37.888 98.304s-54.272 38.912-90.112 39.936c-35.84-1.024-66.56-14.336-90.112-39.936s-36.864-58.368-37.888-98.304v-21.504z m-64.512-63.488h-102.4c-12.288-128-37.888-384-51.2-512h690.176c-12.288 128-37.888 384-51.2 512h-102.4v-128h-63.488V528.384h-256v-128h-63.488V528.384z"  horiz-adv-x="1024" />

    
    <glyph glyph-name="yd-icon-loading" unicode="&#58911;" d="M480.256 834.56h63.488v-256h-63.488V834.56z m0-640h63.488v-256h-63.488v256z m480.256 224.256v-63.488h-256v63.488h256z m-641.024 0v-63.488h-256v63.488h256zM173.056 680.96l45.056 45.056L399.36 544.768l-45.056-45.056C309.248 544.768 218.112 634.88 173.056 680.96zM624.64 228.35199999999998l45.056 45.056 181.248-181.248-45.056-45.056C760.832 93.18399999999997 670.72 183.29600000000005 624.64 228.35199999999998z m181.248 497.664l45.056-45.056-181.248-181.248-45.056 45.056c46.08 45.056 136.192 135.168 181.248 181.248zM354.304 273.408l45.056-45.056-181.248-181.248-45.056 45.056c45.056 46.08 136.192 136.192 181.248 181.248z"  horiz-adv-x="1024" />

    
    <glyph glyph-name="yd-icon-location" unicode="&#58912;" d="M896 450.56c-16.384-133.12-79.872-250.88-192.512-352.256S528.384-56.32000000000005 512-61.440000000000055c-16.384 5.12-79.872 58.368-192.512 159.744S144.384 317.44000000000005 128 450.56c3.072 108.544 39.936 198.656 112.64 271.36S403.456 831.488 512 834.56c108.544-3.072 198.656-39.936 271.36-112.64s109.568-162.816 112.64-271.36z m-207.872 0c-1.024 50.176-18.432 91.136-51.2 124.928s-74.752 50.176-124.928 51.2c-50.176-1.024-91.136-18.432-124.928-51.2s-50.176-74.752-51.2-124.928c1.024-50.176 18.432-91.136 51.2-124.928s74.752-50.176 124.928-51.2c50.176 1.024 91.136 18.432 124.928 51.2s50.176 74.752 51.2 124.928z"  horiz-adv-x="1024" />

    
    <glyph glyph-name="yd-icon-menu" unicode="&#58913;" d="M128 463.872V783.36h319.488v-319.488H128z m447.488 0V783.36h319.488v-319.488H575.488zM128 15.360000000000014V334.84799999999996h319.488V15.360000000000014H128z m447.488 0V334.84799999999996h319.488V15.360000000000014H575.488z"  horiz-adv-x="1024" />

    
    <glyph glyph-name="yd-icon-location-out" unicode="&#58914;" d="M512 834.56c108.544-3.072 198.656-39.936 271.36-112.64s109.568-162.816 112.64-271.36c-16.384-133.12-79.872-250.88-192.512-352.256S528.384-56.32000000000005 512-61.440000000000055c-16.384 5.12-79.872 58.368-192.512 159.744S144.384 317.44000000000005 128 450.56c3.072 108.544 39.936 198.656 112.64 271.36S403.456 831.488 512 834.56z m0-63.488c-91.136-2.048-165.888-32.768-226.304-93.184S194.56 541.696 192.512 451.584c6.144-83.968 45.056-165.888 116.736-245.76S448.512 61.440000000000055 512 16.384000000000015c63.488 45.056 131.072 107.52 202.752 188.416s110.592 161.792 116.736 245.76c-2.048 91.136-32.768 165.888-93.184 226.304s-135.168 92.16-226.304 94.208z m0-129.024c54.272-1.024 100.352-20.48 136.192-56.32s54.272-80.896 56.32-136.192c-1.024-54.272-20.48-100.352-56.32-136.192s-80.896-54.272-136.192-56.32c-54.272 1.024-100.352 20.48-136.192 56.32s-54.272 80.896-56.32 136.192c1.024 54.272 20.48 100.352 56.32 136.192s81.92 55.296 136.192 56.32z m0-63.488c-35.84-1.024-66.56-13.312-90.112-37.888-24.576-24.576-36.864-54.272-37.888-90.112 1.024-35.84 13.312-66.56 37.888-90.112 24.576-24.576 54.272-36.864 90.112-37.888 35.84 1.024 66.56 13.312 90.112 37.888 24.576 24.576 36.864 54.272 37.888 90.112-1.024 35.84-13.312 66.56-37.888 90.112-23.552 24.576-54.272 36.864-90.112 37.888z"  horiz-adv-x="1024" />

    
    <glyph glyph-name="yd-icon-message" unicode="&#58915;" d="M128 530.432v-465.92h768V530.432C799.744 461.824 608.256 324.60799999999995 512 256c-96.256 68.608-287.744 205.824-384 274.432zM63.488 0v768h896v-768H63.488zM128 609.28c96.256-68.608 287.744-205.824 384-274.432 96.256 68.608 287.744 205.824 384 274.432v95.232h-768V609.28z"  horiz-adv-x="1024" />

    
    <glyph glyph-name="yd-icon-minus" unicode="&#58916;" d="M96.256 367.616h831.488v63.488H96.256v-63.488z"  horiz-adv-x="1024" />

    
    <glyph glyph-name="yd-icon-mobile-phone" unicode="&#58917;" d="M224.256 129.024v-159.744h575.488V129.024H224.256z m0 64.512h575.488V801.792H224.256v-608.256z m-64.512-288.768V865.28h704.512v-960.512H159.744z m400.384 144.384c-1.024-13.312-5.12-24.576-14.336-33.792s-20.48-13.312-33.792-13.312-24.576 4.096-33.792 13.312-13.312 20.48-13.312 33.792 4.096 24.576 13.312 33.792 20.48 13.312 33.792 13.312 24.576-4.096 33.792-13.312 13.312-20.48 14.336-33.792z"  horiz-adv-x="1024" />

    
    <glyph glyph-name="yd-icon-more-outline" unicode="&#58918;" d="M176.128 495.616c-31.744-1.024-58.368-11.264-79.872-32.768s-31.744-47.104-32.768-79.872c1.024-31.744 11.264-58.368 32.768-79.872s47.104-31.744 79.872-32.768c31.744 1.024 58.368 11.264 79.872 32.768s31.744 47.104 32.768 79.872c-1.024 31.744-11.264 58.368-32.768 79.872s-48.128 31.744-79.872 32.768z m0-64.512c13.312-1.024 24.576-5.12 33.792-14.336s13.312-20.48 13.312-33.792-4.096-24.576-13.312-33.792-20.48-13.312-33.792-13.312-24.576 4.096-33.792 13.312-13.312 20.48-13.312 33.792 4.096 24.576 13.312 33.792 20.48 14.336 33.792 14.336zM512 495.616c31.744-1.024 58.368-11.264 79.872-32.768s31.744-47.104 32.768-79.872c-1.024-31.744-11.264-58.368-32.768-79.872s-48.128-30.72-79.872-31.744c-31.744 1.024-58.368 11.264-79.872 32.768S400.384 351.23199999999997 399.36 384c1.024 31.744 11.264 58.368 32.768 79.872s48.128 30.72 79.872 31.744z m0-64.512c-13.312-1.024-24.576-5.12-33.792-14.336s-13.312-20.48-13.312-33.792 4.096-24.576 13.312-33.792 20.48-13.312 33.792-13.312 24.576 4.096 33.792 13.312 13.312 20.48 13.312 33.792-4.096 24.576-13.312 33.792-20.48 14.336-33.792 14.336z m335.872 64.512c31.744-1.024 58.368-11.264 79.872-32.768s31.744-47.104 32.768-79.872c-1.024-31.744-11.264-58.368-32.768-79.872S880.64 271.36 847.872 270.336c-31.744 1.024-58.368 11.264-79.872 32.768s-31.744 47.104-32.768 79.872c1.024 31.744 11.264 58.368 32.768 79.872s48.128 31.744 79.872 32.768z m0-64.512c-13.312-1.024-24.576-5.12-33.792-14.336s-13.312-20.48-13.312-33.792 4.096-24.576 13.312-33.792 20.48-13.312 33.792-13.312 24.576 4.096 33.792 13.312 13.312 20.48 13.312 33.792-4.096 24.576-13.312 33.792-20.48 14.336-33.792 14.336z"  horiz-adv-x="1024" />

    
    <glyph glyph-name="yd-icon-phone" unicode="&#58919;" d="M218.112 829.44c-33.792-78.848-102.4-237.568-136.192-317.44l542.72-542.72c78.848 33.792 237.568 102.4 317.44 136.192-47.104 47.104-141.312 141.312-189.44 188.416-37.888-18.432-113.664-56.32-150.528-74.752L330.752 490.496c18.432 37.888 56.32 113.664 74.752 150.528-46.08 46.08-140.288 141.312-187.392 188.416z"  horiz-adv-x="1024" />

    
    <glyph glyph-name="yd-icon-more" unicode="&#58920;" d="M176.128 516.096c31.744-1.024 58.368-11.264 79.872-32.768s31.744-47.104 32.768-79.872c-1.024-31.744-11.264-57.344-32.768-78.848s-47.104-31.744-79.872-33.792c-31.744 1.024-58.368 12.288-79.872 33.792S64.512 372.736 63.488 404.48c1.024 31.744 11.264 58.368 32.768 79.872s48.128 31.744 79.872 31.744z m335.872 0c31.744-1.024 58.368-11.264 79.872-32.768s31.744-47.104 32.768-79.872c-1.024-31.744-11.264-57.344-32.768-78.848s-47.104-31.744-79.872-33.792c-31.744 1.024-58.368 12.288-79.872 33.792s-31.744 47.104-32.768 78.848c1.024 31.744 11.264 58.368 32.768 79.872s48.128 32.768 79.872 32.768z m335.872 0c31.744-1.024 58.368-11.264 79.872-32.768s31.744-47.104 32.768-79.872c-1.024-31.744-11.264-57.344-32.768-78.848s-47.104-31.744-79.872-33.792c-31.744 1.024-58.368 12.288-79.872 33.792s-31.744 47.104-32.768 78.848c1.024 31.744 11.264 58.368 32.768 79.872s48.128 32.768 79.872 32.768z"  horiz-adv-x="1024" />

    
    <glyph glyph-name="yd-icon-picture-outl" unicode="&#58921;" d="M63.488 15.360000000000014V783.36h896v-768H63.488z m64.512 128l192.512 192.512L436.224 220.15999999999997c51.2 61.44 152.576 183.296 203.776 243.712 63.488-76.8 192.512-230.4 256-307.2v563.2h-768v-576.512z m358.4 34.816c-11.264-13.312-33.792-40.96-45.056-54.272-30.72 29.696-91.136 90.112-120.832 119.808-41.984-40.96-124.928-123.904-165.888-164.864h722.944c-59.392 71.68-178.176 214.016-237.568 284.672-38.912-46.08-115.712-139.264-153.6-185.344zM367.616 623.616c20.48 0 38.912-5.12 56.32-15.36s30.72-23.552 40.96-41.984c10.24-17.408 15.36-35.84 15.36-55.296s-5.12-37.888-15.36-55.296-23.552-30.72-40.96-40.96-35.84-15.36-56.32-15.36c-31.744 1.024-58.368 11.264-79.872 32.768s-31.744 47.104-32.768 79.872c1.024 31.744 11.264 58.368 32.768 79.872s48.128 30.72 79.872 31.744z m0-64.512c-13.312-1.024-24.576-5.12-33.792-14.336s-13.312-20.48-13.312-33.792 4.096-24.576 13.312-33.792 20.48-13.312 33.792-13.312 24.576 4.096 33.792 13.312 13.312 20.48 13.312 33.792-4.096 24.576-13.312 33.792-20.48 14.336-33.792 14.336z"  horiz-adv-x="1024" />

    
    <glyph glyph-name="yd-icon-plus" unicode="&#58922;" d="M480.256 431.104H96.256v-63.488h384v-384h63.488V367.616h384v63.488H543.744V815.104h-63.488v-384z"  horiz-adv-x="1024" />

    
    <glyph glyph-name="yd-icon-printer" unicode="&#58923;" d="M224.256 130.048H64.512V705.5360000000001h159.744V833.5360000000001h575.488v-128h159.744v-575.488H799.744v-192.512H224.256V130.048z m575.488 64.512h96.256V643.072h-768v-448.512h96.256V322.55999999999995h575.488v-128z m-512 512h448.512v63.488H287.744v-63.488z m0-703.488h448.512v256H287.744v-256z m-95.232 447.488v63.488h192.512v-63.488H192.512z"  horiz-adv-x="1024" />

    
    <glyph glyph-name="yd-icon-question" unicode="&#58924;" d="M512 834.56c60.416 0 116.736-11.264 171.008-33.792s102.4-55.296 144.384-98.304C870.4 660.48 903.168 612.352 925.696 558.0799999999999s33.792-111.616 33.792-171.008c-1.024-92.16-26.624-175.104-75.776-248.832-49.152-73.728-115.712-129.024-200.704-165.888-86.016-33.792-172.032-41.984-259.072-24.576S261.12 5.1200000000000045 194.56 69.63199999999995C131.072 135.168 90.112 211.96799999999996 72.704 299.00800000000004s-9.216 173.056 25.6 258.048c35.84 84.992 91.136 152.576 164.864 201.728S419.84 833.5360000000001 512 834.56z m83.968-450.56c14.336 7.168 31.744 20.48 54.272 40.96 22.528 19.456 34.816 50.176 36.864 91.136-1.024 41.984-15.36 76.8-43.008 103.424s-56.32 44.032-87.04 50.176c-30.72 7.168-61.44 7.168-91.136 0s-56.32-21.504-79.872-46.08c-16.384-18.432-28.672-35.84-35.84-55.296-7.168-18.432-11.264-40.96-13.312-67.584-2.048-14.336 1.024-26.624 10.24-36.864s20.48-16.384 34.816-17.408c12.288 1.024 21.504 4.096 29.696 11.264 8.192 7.168 13.312 15.36 16.384 25.6h1.024v9.216c-1.024 20.48 3.072 37.888 11.264 54.272s25.6 27.648 52.224 34.816c16.384 3.072 31.744 2.048 46.08-2.048s26.624-10.24 35.84-19.456c10.24-11.264 15.36-25.6 14.336-43.008s-10.24-32.768-25.6-45.056c-17.408-11.264-38.912-26.624-52.224-34.816-15.36-9.216-25.6-19.456-31.744-31.744s-9.216-25.6-9.216-40.96v-75.776c1.024-11.264 5.12-21.504 14.336-28.672s19.456-12.288 32.768-12.288 24.576 4.096 32.768 12.288 12.288 17.408 12.288 28.672v41.984c0 9.216 3.072 18.432 8.192 27.648s13.312 17.408 25.6 25.6zM512 98.30399999999997c17.408 1.024 31.744 7.168 43.008 18.432S573.44 142.336 573.44 158.72000000000003c0 17.408-6.144 31.744-18.432 44.032S528.384 220.15999999999997 510.976 220.15999999999997c-16.384 0-30.72-6.144-43.008-17.408S450.56 177.15200000000004 450.56 159.74400000000003s6.144-31.744 17.408-43.008 26.624-17.408 44.032-18.432z"  horiz-adv-x="1024" />

    
    <glyph glyph-name="yd-icon-refresh" unicode="&#58925;" d="M772.096 116.73599999999999c-58.368-52.224-123.904-83.968-197.632-96.256s-145.408-3.072-216.064 26.624c-70.656 31.744-126.976 78.848-167.936 142.336-40.96 62.464-61.44 133.12-62.464 209.92h63.488c1.024-67.584 19.456-128 55.296-181.248 35.84-53.248 86.016-92.16 148.48-116.736 62.464-23.552 125.952-28.672 188.416-14.336s117.76 47.104 163.84 96.256H622.592v63.488h212.992v-212.992h-63.488v82.944zM276.48 615.424h124.928v-63.488H188.416V764.928h63.488v-81.92c58.368 52.224 123.904 83.968 197.632 96.256s146.432 3.072 217.088-26.624c70.656-32.768 126.976-80.896 166.912-143.36s61.44-133.12 62.464-209.92h-63.488c-1.024 67.584-19.456 128-55.296 181.248s-86.016 92.16-148.48 116.736C566.272 720.896 502.784 726.016 440.32 711.6800000000001s-118.784-47.104-163.84-96.256z"  horiz-adv-x="1024" />

    
    <glyph glyph-name="yd-icon-remove-outli" unicode="&#58926;" d="M512-61.440000000000055c-126.976 3.072-232.448 47.104-316.416 131.072S67.584 260.096 63.488 386.048c3.072 126.976 47.104 232.448 131.072 316.416S385.024 831.488 512 834.56c126.976-3.072 232.448-47.104 316.416-131.072s128-189.44 131.072-316.416c-3.072-126.976-47.104-232.448-131.072-316.416S638.976-58.36800000000005 512-61.440000000000055z m0 64.512c108.544 3.072 198.656 39.936 271.36 112.64 72.704 72.704 109.568 162.816 112.64 271.36-3.072 108.544-39.936 198.656-112.64 271.36S620.544 768 512 771.072c-108.544-3.072-198.656-39.936-271.36-112.64s-109.568-162.816-112.64-271.36c3.072-108.544 39.936-198.656 112.64-271.36 72.704-72.704 162.816-110.592 271.36-112.64zM256 418.816h512v-63.488H256v63.488z"  horiz-adv-x="1024" />

    
    <glyph glyph-name="yd-icon-picture" unicode="&#58927;" d="M63.488 15.360000000000014V783.36h896v-768H63.488z m64.512 128l192.512 192.512L436.224 220.15999999999997c51.2 61.44 152.576 183.296 203.776 243.712 63.488-76.8 192.512-230.4 256-307.2v563.2h-768v-576.512z m224.256 480.256c17.408 0 33.792-4.096 48.128-13.312 14.336-8.192 26.624-20.48 34.816-35.84 8.192-14.336 13.312-30.72 13.312-47.104s-4.096-32.768-13.312-48.128-20.48-27.648-34.816-35.84-30.72-12.288-48.128-12.288c-27.648 1.024-50.176 10.24-67.584 27.648s-26.624 40.96-26.624 67.584 9.216 50.176 26.624 67.584 39.936 28.672 67.584 29.696z"  horiz-adv-x="1024" />

    
    <glyph glyph-name="yd-icon-news" unicode="&#58928;" d="M448.512 771.072v-63.488H129.024v-640h704.512v256h63.488v-319.488H65.536v768c94.208-1.024 286.72-1.024 382.976-1.024zM768 834.56c54.272-1.024 100.352-20.48 136.192-56.32s54.272-80.896 56.32-136.192c-1.024-54.272-20.48-100.352-56.32-136.192s-80.896-54.272-136.192-56.32c-54.272 1.024-100.352 20.48-136.192 56.32s-54.272 80.896-56.32 136.192c1.024 54.272 20.48 100.352 56.32 136.192S713.728 833.5360000000001 768 834.56z m0-63.488c-35.84-1.024-66.56-13.312-90.112-37.888-24.576-24.576-36.864-54.272-37.888-90.112 1.024-35.84 13.312-66.56 37.888-90.112 24.576-24.576 54.272-36.864 90.112-37.888 35.84 1.024 66.56 13.312 90.112 37.888s36.864 54.272 37.888 90.112c-1.024 35.84-13.312 66.56-37.888 90.112s-54.272 36.864-90.112 37.888z"  horiz-adv-x="1024" />

    
    <glyph glyph-name="yd-icon-remove" unicode="&#58929;" d="M512-61.440000000000055c-126.976 3.072-232.448 47.104-316.416 131.072S67.584 260.096 63.488 386.048c3.072 126.976 47.104 232.448 131.072 316.416S385.024 831.488 512 834.56c126.976-3.072 232.448-47.104 316.416-131.072s128-189.44 131.072-316.416c-3.072-126.976-47.104-232.448-131.072-316.416S638.976-58.36800000000005 512-61.440000000000055zM256 418.816v-63.488h512v63.488H256z"  horiz-adv-x="1024" />

    
    <glyph glyph-name="yd-icon-search" unicode="&#58930;" d="M444.77541 9.660478000000012C200.397757 9.660478000000012 1.595016 208.44195200000001 1.595016 452.819605S200.397757 896 444.77541 896c244.356386 0 443.180395-198.802741 443.180395-443.180395s-198.824008-443.159128-443.180395-443.159127z m0 843.805773C223.855119 853.466251 44.128764 673.739896 44.128764 452.819605c0-220.899024 179.726355-400.625379 400.646646-400.625379s400.646646 179.726355 400.646646 400.625379c0 220.920291-179.726355 400.646646-400.646646 400.646646zM754.867705 166.41860899999995l261.263551-261.284819-30.07136-30.07136L724.775078 136.34724800000004z"  horiz-adv-x="1024" />

    
    <glyph glyph-name="yd-icon-phone-outlin" unicode="&#58931;" d="M63.488 481.28l542.72-542.72c78.848 33.792 237.568 102.4 317.44 136.192-51.2 51.2-152.576 152.576-203.776 202.752l-90.112-45.056C562.176 301.05600000000004 425.984 436.224 358.4 504.832l45.056 90.112c-51.2 51.2-152.576 152.576-202.752 203.776-34.816-79.872-102.4-237.568-137.216-317.44z m76.8 15.36c20.48 47.104 60.416 142.336 80.896 190.464 26.624-25.6 78.848-77.824 105.472-104.448-11.264-22.528-34.816-68.608-46.08-91.136l336.896-336.896c22.528 11.264 68.608 34.816 91.136 46.08 25.6-26.624 77.824-78.848 104.448-105.472-47.104-20.48-142.336-60.416-190.464-80.896C501.76 135.168 260.096 375.808 140.288 496.64zM512 578.56v63.488c72.704-2.048 133.12-26.624 181.248-74.752s72.704-108.544 74.752-181.248h-63.488c-1.024 54.272-20.48 100.352-56.32 136.192s-81.92 55.296-136.192 56.32z m0 192.512V834.56c126.976-3.072 232.448-47.104 316.416-131.072s128-189.44 131.072-316.416h-63.488c-3.072 108.544-39.936 198.656-112.64 271.36S620.544 768 512 771.072z"  horiz-adv-x="1024" />

    
    <glyph glyph-name="yd-icon-service" unicode="&#58932;" d="M864.256 482.304c33.792-19.456 58.368-46.08 75.776-78.848s23.552-69.632 18.432-107.52c-4.096-37.888-17.408-71.68-41.984-100.352s-54.272-49.152-90.112-61.44C812.032 73.72799999999995 782.336 25.600000000000023 737.28-10.240000000000009s-99.328-55.296-160.768-56.32H448.512v63.488h128c40.96 1.024 77.824 12.288 110.592 35.84 32.768 22.528 56.32 54.272 69.632 92.16h-53.248V508.928h63.488c10.24 0 21.504-1.024 30.72-2.048-9.216 74.752-40.96 136.192-93.184 184.32S587.776 762.88 512 764.928c-75.776-1.024-140.288-25.6-193.536-73.728S234.496 581.6320000000001 225.28 506.88c10.24 1.024 20.48 2.048 30.72 2.048h63.488v-384H256c-45.056 1.024-83.968 14.336-116.736 39.936-33.792 25.6-56.32 59.392-67.584 102.4-11.264 43.008-9.216 84.992 7.168 123.904s43.008 69.632 81.92 92.16c3.072 100.352 36.864 183.296 103.424 249.856S411.648 832.512 512 834.56c100.352-2.048 183.296-35.84 248.832-102.4s100.352-149.504 103.424-249.856zM256 444.416c-35.84-1.024-66.56-13.312-90.112-37.888s-36.864-54.272-37.888-90.112c1.024-35.84 13.312-66.56 37.888-90.112s54.272-36.864 90.112-37.888v256z m640-128c-1.024 35.84-13.312 66.56-37.888 90.112s-54.272 36.864-90.112 37.888v-256c35.84 1.024 66.56 13.312 90.112 37.888s36.864 54.272 37.888 90.112z"  horiz-adv-x="1024" />

    
    <glyph glyph-name="yd-icon-share" unicode="&#58933;" d="M679.936 562.1759999999999c23.552-21.504 51.2-33.792 82.944-34.816s59.392 8.192 84.992 28.672c25.6 21.504 41.984 47.104 46.08 77.824s-1.024 60.416-19.456 88.064c-17.408 27.648-40.96 46.08-70.656 55.296s-59.392 6.144-89.088-7.168c-29.696-13.312-51.2-34.816-63.488-63.488-12.288-28.672-14.336-59.392-5.12-91.136-100.352-61.44-226.304-140.288-302.08-187.392-20.48 18.432-43.008 29.696-68.608 33.792s-51.2 0-75.776-12.288c-24.576-11.264-43.008-28.672-56.32-51.2s-17.408-48.128-15.36-75.776c3.072-26.624 12.288-50.176 29.696-69.632s38.912-33.792 64.512-40.96c26.624-7.168 52.224-5.12 76.8 3.072s45.056 24.576 61.44 47.104c93.184-34.816 209.92-78.848 279.552-105.472-3.072-33.792 4.096-62.464 22.528-88.064 18.432-25.6 43.008-41.984 75.776-50.176 31.744-7.168 61.44-4.096 89.088 11.264s47.104 36.864 58.368 67.584c12.288 31.744 12.288 61.44 1.024 90.112s-30.72 51.2-60.416 66.56-58.368 20.48-89.088 13.312-55.296-24.576-74.752-51.2c-93.184 34.816-209.92 78.848-279.552 105.472 2.048 18.432 0 35.84-5.12 53.248 100.352 62.464 226.304 140.288 302.08 187.392z"  horiz-adv-x="1024" />

    
    <glyph glyph-name="yd-icon-setting" unicode="&#58934;" d="M624.64 834.56c55.296-31.744 166.912-96.256 222.208-128-10.24-18.432-31.744-56.32-43.008-74.752 14.336-17.408 27.648-35.84 39.936-57.344s21.504-41.984 29.696-63.488h86.016v-256h-86.016c-16.384-45.056-38.912-84.992-69.632-120.832 14.336-24.576 31.744-56.32 43.008-74.752-55.296-31.744-166.912-96.256-222.208-128-10.24 18.432-31.744 56.32-43.008 74.752-47.104-8.192-93.184-8.192-140.288 0-14.336-24.576-31.744-56.32-43.008-74.752-55.296 31.744-166.912 96.256-222.208 128 10.24 18.432 31.744 56.32 43.008 74.752-15.36 18.432-28.672 36.864-40.96 57.344-11.264 20.48-21.504 41.984-29.696 63.488H62.464v256h86.016c16.384 45.056 38.912 84.992 69.632 120.832-14.336 24.576-31.744 56.32-43.008 74.752C232.448 738.304 343.04 802.816 399.36 834.56c10.24-18.432 31.744-56.32 43.008-74.752 47.104 8.192 93.184 8.192 140.288 0C595.968 784.384 614.4 816.128 624.64 834.56z m24.576-87.04l-12.288-20.48c-5.12-10.24-16.384-29.696-21.504-38.912l-45.056 8.192c-38.912 7.168-77.824 7.168-115.712 0-15.36-3.072-33.792-6.144-45.056-8.192-8.192 14.336-25.6 44.032-33.792 59.392-27.648-16.384-82.944-48.128-109.568-63.488 8.192-14.336 24.576-44.032 32.768-59.392-7.168-8.192-21.504-25.6-28.672-33.792-25.6-29.696-45.056-63.488-58.368-101.376-5.12-14.336-11.264-31.744-15.36-43.008h-67.584v-128h66.56c4.096-10.24 12.288-31.744 16.384-43.008 7.168-19.456 14.336-36.864 23.552-53.248s20.48-31.744 33.792-48.128c9.216-11.264 21.504-25.6 28.672-33.792-8.192-14.336-24.576-44.032-32.768-59.392 27.648-16.384 82.944-48.128 109.568-63.488 8.192 14.336 25.6 44.032 33.792 59.392l45.056-8.192c38.912-7.168 77.824-7.168 115.712 0 15.36 3.072 33.792 6.144 45.056 8.192 8.192-14.336 25.6-44.032 33.792-59.392 27.648 16.384 82.944 48.128 109.568 63.488-8.192 14.336-24.576 44.032-32.768 59.392 7.168 8.192 21.504 25.6 28.672 33.792 25.6 30.72 45.056 64.512 58.368 101.376 5.12 14.336 11.264 31.744 15.36 43.008h67.584V446.464h-66.56c-4.096 10.24-12.288 31.744-16.384 43.008-6.144 18.432-14.336 35.84-23.552 52.224s-21.504 32.768-33.792 48.128c-9.216 11.264-21.504 25.6-28.672 33.792 8.192 14.336 24.576 44.032 32.768 59.392-27.648 16.384-81.92 48.128-109.568 64.512zM512 606.2080000000001c63.488-1.024 115.712-23.552 158.72-65.536s64.512-95.232 65.536-158.72c-1.024-63.488-23.552-115.712-65.536-158.72-41.984-41.984-95.232-64.512-158.72-65.536-63.488 1.024-115.712 23.552-158.72 65.536-41.984 41.984-64.512 95.232-65.536 158.72 1.024 63.488 23.552 115.712 65.536 158.72s95.232 64.512 158.72 65.536z m0-63.488c45.056-1.024 82.944-17.408 112.64-47.104s46.08-67.584 47.104-112.64c-1.024-45.056-17.408-82.944-47.104-112.64s-67.584-46.08-112.64-47.104c-45.056 1.024-82.944 17.408-112.64 47.104s-46.08 67.584-47.104 112.64c1.024 45.056 17.408 82.944 47.104 112.64s67.584 46.08 112.64 47.104z"  horiz-adv-x="1024" />

    
    <glyph glyph-name="yd-icon-sold-out" unicode="&#58935;" d="M704.512 610.304h159.744c5.12-56.32 16.384-167.936 21.504-224.256h-63.488l-16.384 159.744h-102.4v-128h-63.488V545.7919999999999h-256v-128h-63.488V545.7919999999999h-102.4c-12.288-128-37.888-384-51.2-512H512v-63.488H96.256c16.384 159.744 48.128 480.256 63.488 640h159.744v21.504c1.024 57.344 20.48 105.472 56.32 143.36S457.728 833.5360000000001 512 834.56c54.272-1.024 100.352-21.504 136.192-59.392s54.272-86.016 56.32-143.36v-21.504z m-64.512 0v21.504c-1.024 38.912-13.312 71.68-37.888 98.304s-54.272 38.912-90.112 39.936c-35.84-1.024-66.56-14.336-90.112-39.936s-36.864-58.368-37.888-98.304v-21.504h256z m224.256-453.632l45.056-45.056-173.056-173.056L563.2 111.61599999999999l45.056 45.056 96.256-96.256V322.55999999999995H768v-262.144c23.552 24.576 71.68 71.68 96.256 96.256z"  horiz-adv-x="1024" />

    
    <glyph glyph-name="yd-icon-sort-down" unicode="&#58936;" d="M417.792 276.48C367.616 226.30399999999997 266.24 125.952 216.064 75.77599999999995v-12.288c0-8.192-3.072-15.36-8.192-21.504s-13.312-9.216-21.504-9.216h-30.72c-8.192 1.024-15.36 4.096-21.504 9.216s-8.192 13.312-8.192 21.504V735.232c0 8.192 3.072 15.36 8.192 21.504s13.312 9.216 21.504 9.216h30.72c8.192-1.024 15.36-4.096 21.504-9.216s9.216-13.312 9.216-21.504v-531.456l137.216 137.216c6.144 6.144 13.312 9.216 21.504 9.216s15.36-3.072 21.504-9.216l21.504-21.504c5.12-6.144 8.192-13.312 8.192-21.504s-4.096-15.36-9.216-21.504z"  horiz-adv-x="1024" />

    
    <glyph glyph-name="yd-icon-sort-up" unicode="&#58937;" d="M870.4 29.696000000000026h-31.744c-8.192 0-15.36 3.072-21.504 9.216s-9.216 13.312-9.216 21.504V595.9680000000001c-34.816-34.816-104.448-103.424-139.264-138.24-7.168-6.144-14.336-9.216-22.528-9.216s-15.36 3.072-21.504 9.216l-21.504 21.504c-6.144 6.144-9.216 13.312-9.216 21.504s3.072 15.36 9.216 21.504c68.608 67.584 153.6 152.576 204.8 203.776v11.264c1.024 8.192 4.096 16.384 9.216 21.504s13.312 9.216 21.504 9.216H870.4c8.192 0 15.36-3.072 21.504-9.216s9.216-13.312 9.216-21.504v-677.888c-1.024-8.192-4.096-16.384-9.216-21.504s-13.312-8.192-21.504-8.192z"  horiz-adv-x="1024" />

    
    <glyph glyph-name="yd-icon-sort" unicode="&#58938;" d="M384 834.56h63.488v-896C354.304 32.76800000000003 166.912 220.15999999999997 72.704 313.34400000000005c11.264 11.264 34.816 33.792 46.08 45.056C185.344 291.84000000000003 317.44 158.72000000000003 384 92.15999999999997V834.56z m191.488 0l374.784-374.784c-11.264-11.264-34.816-33.792-46.08-45.056-65.536 66.56-197.632 198.656-264.192 265.216v-741.376h-63.488c-1.024 224.256-1.024 671.744-1.024 896z"  horiz-adv-x="1024" />

    
    <glyph glyph-name="yd-icon-star-off" unicode="&#58939;" d="M512 168.96000000000004c50.176-26.624 150.528-78.848 200.704-105.472-10.24 55.296-29.696 166.912-38.912 223.232 40.96 39.936 121.856 118.784 162.816 157.696l-225.28 32.768C586.752 528.384 536.576 629.76 512 680.96c-24.576-51.2-74.752-152.576-100.352-202.752l-225.28-32.768c40.96-39.936 121.856-118.784 162.816-157.696-10.24-55.296-29.696-166.912-38.912-223.232 51.2 25.6 151.552 77.824 201.728 104.448z m0-77.824c-72.704-37.888-218.112-114.688-290.816-152.576 13.312 80.896 40.96 242.688 55.296 323.584C217.088 320.51199999999994 99.328 435.2 40.96 492.544c80.896 11.264 243.712 34.816 324.608 47.104C402.432 613.376 475.136 760.832 512 834.56c36.864-73.728 109.568-221.184 146.432-294.912 80.896-11.264 243.712-34.816 324.608-47.104-58.368-57.344-176.128-172.032-235.52-230.4 13.312-80.896 40.96-242.688 55.296-323.584-72.704 37.888-218.112 114.688-290.816 152.576z"  horiz-adv-x="1024" />

    
    <glyph glyph-name="yd-icon-star-on" unicode="&#58940;" d="M512 91.13599999999997c-72.704-37.888-218.112-114.688-290.816-152.576 13.312 80.896 40.96 242.688 55.296 323.584C217.088 320.51199999999994 99.328 435.2 40.96 492.544c80.896 11.264 243.712 34.816 324.608 47.104C402.432 613.376 475.136 760.832 512 834.56c36.864-73.728 109.568-221.184 146.432-294.912 80.896-11.264 243.712-34.816 324.608-47.104-58.368-57.344-176.128-172.032-235.52-230.4 13.312-80.896 40.96-242.688 55.296-323.584-72.704 37.888-218.112 114.688-290.816 152.576z"  horiz-adv-x="1024" />

    
    <glyph glyph-name="yd-icon-rank" unicode="&#58941;" d="M186.368 354.304h290.816v-293.888l-63.488 63.488-45.056-45.056 141.312-141.312 141.312 141.312-45.056 45.056-63.488-63.488V354.304h290.816l-63.488-63.488 45.056-45.056 141.312 141.312c-37.888 34.816-108.544 105.472-143.36 140.288L768 482.304l63.488-63.488H540.672V711.6800000000001c16.384-15.36 48.128-47.104 63.488-63.488l45.056 45.056C614.4 729.088 543.744 799.744 508.928 834.56L367.616 693.248l45.056-45.056 63.488 63.488v-293.888H185.344l63.488 63.488-45.056 45.056L63.488 386.048C99.328 351.23199999999997 169.984 280.576 204.8 245.76l45.056 45.056-63.488 63.488z"  horiz-adv-x="1024" />

    
    <glyph glyph-name="yd-icon-success" unicode="&#58942;" d="M512-128c-145.408 3.072-266.24 53.248-362.496 149.504S3.072 238.59199999999998 0 384c3.072 145.408 53.248 266.24 149.504 362.496S366.592 892.928 512 896c145.408-3.072 266.24-53.248 362.496-149.504S1020.928 529.408 1024 384c-3.072-145.408-53.248-266.24-149.504-362.496S657.408-124.928 512-128z m312.32 805.888C727.04 613.376 644.096 547.8399999999999 575.488 480.256S456.704 359.424 424.96 318.46400000000006c-51.2 41.984-116.736 95.232-154.624 126.976-17.408-14.336-52.224-43.008-68.608-58.368 66.56-71.68 200.704-214.016 268.288-284.672 24.576 65.536 70.656 148.48 136.192 249.856s144.384 196.608 235.52 286.72c-6.144 13.312-13.312 29.696-17.408 38.912z"  horiz-adv-x="1024" />

    
    <glyph glyph-name="yd-icon-time" unicode="&#58943;" d="M512 834.56c126.976-3.072 232.448-47.104 316.416-131.072s128-189.44 131.072-316.416c-3.072-126.976-47.104-232.448-131.072-316.416S638.976-58.36800000000005 512-61.440000000000055c-126.976 3.072-232.448 47.104-316.416 131.072S67.584 260.096 63.488 386.048c3.072 126.976 47.104 232.448 131.072 316.416S385.024 831.488 512 834.56z m0-831.488c108.544 3.072 198.656 39.936 271.36 112.64 72.704 72.704 109.568 162.816 112.64 271.36-3.072 108.544-39.936 198.656-112.64 271.36S620.544 768 512 771.072c-108.544-3.072-198.656-39.936-271.36-112.64s-109.568-162.816-112.64-271.36c3.072-108.544 39.936-198.656 112.64-271.36 72.704-72.704 162.816-110.592 271.36-112.64z m31.744 366.592c36.864-29.696 110.592-88.064 148.48-117.76-10.24-12.288-29.696-37.888-39.936-50.176-43.008 34.816-129.024 103.424-172.032 138.24V643.072h63.488v-273.408z"  horiz-adv-x="1024" />

    
    <glyph glyph-name="yd-icon-tickets" unicode="&#58944;" d="M128 834.56h768v-896h-768V834.56z m64.512-63.488v-768h640v768H192.512zM256 578.56h512v-63.488H256V578.56z m0-192.512h512V322.55999999999995H256v63.488z m0-191.488h512v-63.488H256v63.488z"  horiz-adv-x="1024" />

    
    <glyph glyph-name="yd-icon-upload" unicode="&#58945;" d="M566.272 0h212.992c69.632 4.096 128 29.696 173.056 76.8s69.632 106.496 71.68 176.128c-2.048 71.68-26.624 132.096-73.728 179.2S843.776 504.832 772.096 506.88h-8.192v8.192c-1.024 71.68-25.6 131.072-73.728 178.176S583.68 765.952 512 768c-71.68-2.048-131.072-26.624-178.176-74.752s-71.68-107.52-73.728-178.176v-8.192h-8.192c-71.68-2.048-131.072-26.624-178.176-74.752S2.048 324.60799999999995 0 252.928C2.048 183.29600000000005 25.6 123.904 71.68 76.79999999999995s103.424-72.704 173.056-76.8h229.376V172.03200000000004h-90.112c-13.312 0-21.504 4.096-25.6 11.264-4.096 7.168-2.048 16.384 4.096 26.624 47.104 71.68 105.472 160.768 140.288 214.016 5.12 7.168 10.24 10.24 16.384 10.24s12.288-3.072 16.384-10.24c47.104-71.68 105.472-160.768 141.312-214.016 7.168-10.24 8.192-19.456 4.096-26.624-4.096-7.168-12.288-11.264-24.576-11.264h-90.112v-172.032z"  horiz-adv-x="1024" />

    
    <glyph glyph-name="yd-icon-upload1" unicode="&#58946;" d="M512 783.36l269.312-269.312-45.056-45.056-192.512 192.512v-518.144h-63.488V661.504L287.744 468.992l-45.056 45.056L512 783.36zM192.512 15.360000000000014v63.488h640V15.360000000000014H192.512z"  horiz-adv-x="1024" />

    
    <glyph glyph-name="yd-icon-warning" unicode="&#58947;" d="M512-128c-144.384 4.096-265.216 54.272-361.472 150.528S4.096 239.61599999999999 0 384c4.096 144.384 54.272 265.216 150.528 361.472S367.616 891.904 512 896c144.384-4.096 265.216-54.272 361.472-150.528S1019.904 528.384 1024 384c-4.096-144.384-54.272-265.216-150.528-361.472S656.384-123.904 512-128z m-51.2 200.704c15.36-15.36 33.792-22.528 56.32-22.528s40.96 7.168 54.272 21.504 21.504 32.768 21.504 54.272-7.168 38.912-22.528 54.272c-14.336 15.36-32.768 22.528-54.272 22.528-19.456 0-37.888-8.192-57.344-25.6-14.336-13.312-21.504-29.696-21.504-50.176s8.192-38.912 23.552-54.272z m116.736 609.28c-16.384 12.288-36.864 19.456-61.44 19.456-4.096 0-12.288-1.024-23.552-3.072-21.504-1.024-37.888-6.144-49.152-15.36s-18.432-22.528-20.48-40.96c-1.024-6.144-2.048-11.264-2.048-17.408 0-9.216 1.024-23.552 3.072-41.984 5.12-30.72 13.312-79.872 26.624-147.456 12.288-57.344 28.672-128 37.888-171.008h50.176c9.216 28.672 17.408 64.512 24.576 108.544 9.216 50.176 21.504 111.616 28.672 149.504 7.168 50.176 10.24 86.016 10.24 107.52s-7.168 39.936-24.576 52.224z"  horiz-adv-x="1024" />

    
    <glyph glyph-name="yd-icon-zoom-in" unicode="&#58948;" d="M448.512 834.56c108.544-3.072 198.656-39.936 271.36-112.64s109.568-162.816 112.64-271.36c0-46.08-8.192-90.112-23.552-132.096s-37.888-80.896-67.584-115.712c69.632-69.632 157.696-156.672 209.92-208.896 5.12-7.168 8.192-14.336 7.168-22.528s-3.072-15.36-9.216-21.504-13.312-9.216-21.504-9.216-15.36 2.048-22.528 7.168C835.584 17.408000000000015 748.544 105.47199999999998 696.32 157.69600000000003c-35.84-29.696-73.728-52.224-115.712-67.584S493.568 66.55999999999995 448.512 66.55999999999995c-108.544 3.072-198.656 39.936-271.36 112.64-72.704 72.704-109.568 162.816-112.64 271.36 3.072 108.544 39.936 198.656 112.64 271.36S338.944 831.488 448.512 834.56z m0-704.512c58.368 1.024 111.616 15.36 159.744 43.008s87.04 66.56 115.712 116.736c29.696 51.2 44.032 104.448 44.032 160.768S753.664 559.104 723.968 609.28c-28.672 50.176-67.584 90.112-115.712 117.76s-102.4 41.984-159.744 43.008c-91.136-2.048-165.888-32.768-226.304-93.184s-91.136-136.192-93.184-226.304c2.048-91.136 32.768-165.888 93.184-226.304 59.392-60.416 135.168-92.16 226.304-94.208z m223.232 352.256v-63.488H479.232v-192.512h-63.488V418.816H223.232v63.488h192.512V674.816h63.488v-192.512h192.512z"  horiz-adv-x="1024" />

    
    <glyph glyph-name="yd-icon-zoom-out" unicode="&#58907;" d="M448.512 834.56c108.544-3.072 198.656-39.936 271.36-112.64s109.568-162.816 112.64-271.36c0-46.08-8.192-90.112-23.552-132.096s-37.888-80.896-67.584-115.712c69.632-69.632 157.696-156.672 209.92-208.896 5.12-7.168 8.192-14.336 7.168-22.528s-3.072-15.36-9.216-21.504-13.312-9.216-21.504-9.216-15.36 2.048-22.528 7.168C835.584 17.408000000000015 748.544 105.47199999999998 696.32 157.69600000000003c-35.84-29.696-73.728-52.224-115.712-67.584S493.568 66.55999999999995 448.512 66.55999999999995c-108.544 3.072-198.656 39.936-271.36 112.64-72.704 72.704-109.568 162.816-112.64 271.36 3.072 108.544 39.936 198.656 112.64 271.36S338.944 831.488 448.512 834.56z m0-704.512c58.368 1.024 111.616 15.36 159.744 43.008s87.04 66.56 115.712 116.736c29.696 51.2 44.032 104.448 44.032 160.768S753.664 559.104 723.968 609.28c-28.672 50.176-67.584 90.112-115.712 117.76s-102.4 41.984-159.744 43.008c-91.136-2.048-165.888-32.768-226.304-93.184s-91.136-136.192-93.184-226.304c2.048-91.136 32.768-165.888 93.184-226.304 59.392-60.416 135.168-92.16 226.304-94.208zM224.256 418.816v63.488h448.512v-63.488H224.256z"  horiz-adv-x="1024" />

    
    <glyph glyph-name="yd-icon-apple" unicode="&#58951;" d="M777.20388 326.682018c-1.023953 122.874385 100.347414 182.263671 104.443227 185.33553-57.341379 82.94021-145.401355 95.227648-177.143904 96.251601-75.772537 7.167672-147.449262-44.029988-185.335531-44.029988s-97.275555 43.006035-159.7367 41.982082c-82.94021-1.023953-158.712747-48.125801-200.694828-121.850432-86.012069-148.473215-21.503017-368.623154 61.437192-489.449632 40.958128-59.389286 89.083929-124.922291 153.592981-122.874384 61.437192 2.047906 84.988116 39.934175 158.712747 39.934175s95.227648-39.934175 159.7367-38.910222C757.748769-125.905299 799.730851-66.516013 839.665026-7.126727c28.67069 43.006035 51.19766 89.083929 67.580911 138.233683-2.047906 0-129.018104 49.149754-130.042057 195.575062zM662.521121 732.167487c35.838362 43.006035 60.413239 103.419274 53.245567 163.832513-51.19766-2.047906-113.658806-33.790456-150.521121-77.820444-32.766503-37.886269-62.461146-99.323461-54.26952-158.712746 57.341379-4.095813 115.706712 29.694643 151.545074 72.700677z"  horiz-adv-x="1024" />

    
    <glyph glyph-name="yd-icon-android1" unicode="&#58952;" d="M916.075924 469.418581h-808.151848c-11.252747 0-21.482517-9.206793-21.482518-21.482517v-297.686314c0-11.252747 9.206793-21.482517 21.482518-21.482517s21.482517 9.206793 21.482517 21.482517v276.203796h84.907093v-362.133866c0-11.252747 9.206793-21.482517 21.482518-21.482517h106.38961V-106.517483c0-11.252747 9.206793-21.482517 21.482518-21.482517s21.482517 9.206793 21.482517 21.482517V43.86014h255.744256v-149.354645c0-11.252747 9.206793-21.482517 21.482517-21.482518s21.482517 9.206793 21.482518 21.482518V43.86014h106.38961c11.252747 0 21.482517 9.206793 21.482518 21.482517V426.453546h84.907093V149.226773c0-11.252747 9.206793-21.482517 21.482517-21.482517s21.482517 9.206793 21.482518 21.482517V447.936064c-2.045954 12.275724-11.252747 21.482517-23.528472 21.482517zM803.548452 859.172827c8.183816 8.183816 7.160839 22.505495-1.022977 29.666334-8.183816 7.160839-20.45954 7.160839-28.643357 0l-91.044955-91.044955c-102.297702 72.631369-239.376623 72.631369-341.674326 0L250.117882 888.839161c-8.183816 8.183816-21.482517 9.206793-29.666334 1.022977-8.183816-8.183816-9.206793-21.482517-1.022977-29.666334l1.022977-1.022977 87.976024-87.976024c-60.355644-56.263736-94.113886-134.00999-94.113886-216.871129v-21.482517c0-11.252747 9.206793-21.482517 21.482518-21.482518h553.430569c11.252747 0 21.482517 9.206793 21.482518 21.482518v21.482517c0 81.838162-33.758242 160.607393-94.113886 216.871129l86.953047 87.976024zM427.092907 639.232767c0-11.252747-9.206793-21.482517-21.482517-21.482517s-21.482517 9.206793-21.482518 21.482517v63.424576c0 11.252747 9.206793 21.482517 21.482518 21.482517s21.482517-9.206793 21.482517-21.482517v-63.424576z m212.779221 0c0-11.252747-9.206793-21.482517-21.482518-21.482517s-21.482517 9.206793-21.482517 21.482517v63.424576c0 11.252747 9.206793 21.482517 21.482517 21.482517s21.482517-9.206793 21.482518-21.482517v-63.424576z"  horiz-adv-x="1024" />

    
    <glyph glyph-name="yd-icon-rise--" unicode="&#58949;" d="M803.85 336l-32.94 36.81L615.92 197a48.43 48.43 0 0 0-67.32-5.33l-5.33 5.33-158.86 177.71L212 181a48.43 48.43 0 0 0-66.84-4.84l-5.81 5.81a62 62 0 0 0 0 80.89l208.73 233.91a48.43 48.43 0 0 0 68.25 5.85l5.81-5.81L579.6 319l120.6 134.66-37.29 41.65A29.06 29.06 0 0 0 674 543.75l193.74 58.61a26.15 26.15 0 0 0 30.51-33.9L847 348.07a23.73 23.73 0 0 0-41.65-12.59"  horiz-adv-x="1024" />

    
    <glyph glyph-name="yd-icon-Allocated" unicode="&#58954;" d="M102.06144 202.411756v28.123685 10.865969A359.855337 359.855337 0 0 0 135.298523 358.370374a403.319214 403.319214 0 0 0 106.102994 138.700903 1057.834072 1057.834072 0 0 1 132.948331 132.309156 15.340192 15.340192 0 0 0 8.948445 3.835048h248.638945a15.979367 15.979367 0 0 0 12.783493-5.752572c26.845336-28.123685 53.051497-56.886545 81.175183-83.731882s70.948388-62.639117 104.824645-95.8762a309.999713 309.999713 0 0 0 90.123628-215.401862 471.071729 471.071729 0 0 0-4.474223-70.948388A294.020346 294.020346 0 0 0 842.225703 0.432561a368.803782 368.803782 0 0 0-178.329732-106.742169 545.855165 545.855165 0 0 0-250.556469-12.783493A379.669751 379.669751 0 0 0 165.978907 25.999548a301.690442 301.690442 0 0 0-59.443244 141.257601C104.618139 179.401468 103.339789 192.184961 102.06144 202.411756z m447.422266-33.237083h81.175183a23.010288 23.010288 0 0 1 24.288637 23.010288 23.649463 23.649463 0 0 1-19.17524 24.927812H547.566182v16.618541a13.422668 13.422668 0 0 0 3.195873 7.670096l88.206104 83.092707 7.030922 7.670096a19.814415 19.814415 0 0 1 0 24.288637 24.927812 24.927812 0 0 1-26.206162 13.422668 51.133973 51.133973 0 0 1-21.731938-10.226794c-25.566987-21.092764-50.494799-43.463877-75.422611-63.917467l-7.030921-5.752572L447.215759 354.535326a74.144261 74.144261 0 0 1-30.680383 17.896891 23.010288 23.010288 0 0 1-30.680384-21.731939 41.546353 41.546353 0 0 1 15.340192-30.680384l78.618483-77.979309a8.948445 8.948445 0 0 0 0-5.113397v-21.731939h-76.700959a26.206161 26.206161 0 0 1-25.566987-22.371113 23.649463 23.649463 0 0 1 26.845336-24.927812h76.70096V128.267495H401.834358a23.010288 23.010288 0 0 1-24.927812-23.010288 21.092764 21.092764 0 0 1 23.010288-21.092764h81.814357v-18.536066a27.484511 27.484511 0 0 1 11.505144-24.927812 38.989655 38.989655 0 0 1 37.711306-3.195873 30.041209 30.041209 0 0 1 16.618541 30.041209v17.257716H636.411461a17.896891 17.896891 0 0 1 18.536065 21.092764 21.092764 21.092764 0 0 1-20.453589 22.371114H548.844531v40.907178z m-42.185528 515.813955H393.525088a10.865969 10.865969 0 0 0-10.226795 5.752572q-22.371113 33.876257-45.381401 63.917467a243.525548 243.525548 0 0 1-54.329847 51.133973 46.659751 46.659751 0 0 0-18.536065 32.597908 24.927812 24.927812 0 0 0 24.288637 28.76286 164.267889 164.267889 0 0 0 30.041209-4.474222l23.010288-6.391747A46.659751 46.659751 0 0 1 383.298293 867.153408c8.309271 7.030921 17.257716 13.422668 26.206161 19.814415a54.969021 54.969021 0 0 0 63.917467-7.030922 166.824588 166.824588 0 0 1 31.319558-20.453589 11.505144 11.505144 0 0 1 10.226795 0 306.164665 306.164665 0 0 1 24.927812 21.731939 58.804069 58.804069 0 0 0 77.979309 0 101.628772 101.628772 0 0 0 10.226795-11.505144 51.773148 51.773148 0 0 1 58.164894-9.58762 174.494684 174.494684 0 0 0 24.288638 8.30927 30.680384 30.680384 0 0 0 38.989654-22.371113 35.154607 35.154607 0 0 0-9.58762-28.76286 44.742227 44.742227 0 0 0-12.144318-11.505144 197.504972 197.504972 0 0 1-63.917467-63.917466c-12.144319-17.257716-23.010288-35.154607-34.515432-53.051498a11.505144 11.505144 0 0 0-10.865969-5.752572H507.298178z"  horiz-adv-x="1024" />

    
    <glyph glyph-name="yd-icon-Unassigned" unicode="&#58955;" d="M39.04 384A485.76 485.76 0 0 0 481.28 860.16l-7.04-496h512A472.96 472.96 0 0 0 39.04 384zM512 896a512 512 0 1 1 512-512 512 512 0 0 1-512 512"  horiz-adv-x="1024" />

    
    <glyph glyph-name="yd-icon-allocation" unicode="&#58956;" d="M407.341176 424.658824L235.670588 253.741176h135.529412v-197.270588h75.294118V253.741176h132.517647z m465.317648-197.270589V424.658824h-79.811765v-197.270589H661.082353l171.670588-170.917647 171.670588 170.917647h-131.764705zM256 896L0 640l85.082353-768h1024l85.082353 768-256 256H256z m48.941176-85.835294h585.035295l219.105882-170.164706H85.082353zM85.082353 554.917647h1024l-75.294118-597.082353H158.117647z"  horiz-adv-x="1195" />

    
    <glyph glyph-name="yd-icon-currency" unicode="&#58957;" d="M950.90443 154.286019V264.978139a117.730347 117.730347 0 0 1 0 14.076454V654.000154A211.786656 211.786656 0 0 1 812.699241 831.875351a687.826754 687.826754 0 0 1-301.364094 63.983884 687.826754 687.826754 0 0 1-303.923449-63.983884A213.066334 213.066334 0 0 1 69.206508 654.000154v-580.973668h6.398389a238.659888 238.659888 0 0 1 133.726317-136.925511 687.826754 687.826754 0 0 1 302.003933-63.983884 687.826754 687.826754 0 0 1 302.643772 63.983884c90.217277 45.428558 139.484867 109.412442 139.484867 177.875197z m-78.060338 499.714135a63.983884 63.983884 0 0 0-20.474843-43.509041 220.7444 220.7444 0 0 0-72.301789-49.267591 680.148688 680.148688 0 0 0-268.732313-49.267591 680.148688 680.148688 0 0 0-268.732313 49.267591 222.024078 222.024078 0 0 0-75.500983 47.348074 63.983884 63.983884 0 0 0-17.915488 45.428558 139.484867 139.484867 0 0 0 94.05631 108.772603 607.20706 607.20706 0 0 0 268.092474 53.106623 609.126576 609.126576 0 0 0 267.452635-54.386301 141.404384 141.404384 0 0 0 94.05631-106.853086zM511.335147 433.255754a760.128543 760.128543 0 0 1 301.364094 55.665979 358.94959 358.94959 0 0 1 60.144851 33.911458v-56.945656a63.983884 63.983884 0 0 0-21.114682-43.509042 234.820854 234.820854 0 0 0-74.221305-49.26759 675.669816 675.669816 0 0 0-266.172958-48.627752 677.589332 677.589332 0 0 0-268.092474 49.267591 222.024078 222.024078 0 0 0-76.140822 48.627751 63.983884 63.983884 0 0 0-19.835004 43.509042v56.305818a363.428461 363.428461 0 0 1 60.144851-33.911459 760.768381 760.768381 0 0 1 303.923449-55.02614z m0-186.832942a755.649671 755.649671 0 0 1 294.965705 55.665979 365.347978 365.347978 0 0 1 63.983885 35.830975v-63.983884a71.66195 71.66195 0 0 0-19.835005-35.830975 221.384239 221.384239 0 0 0-72.301788-49.26759 681.428365 681.428365 0 0 0-268.732314-49.267591 680.788526 680.788526 0 0 0-268.732313 49.267591 222.024078 222.024078 0 0 0-72.301789 49.26759 63.983884 63.983884 0 0 0-20.474842 43.509041v54.386302a362.788623 362.788623 0 0 1 60.144851-33.911459 757.569187 757.569187 0 0 1 303.28361-55.665979z m0-186.193102a760.128543 760.128543 0 0 1 300.724255 53.746462 360.869106 360.869106 0 0 1 59.505012 32.631781v-46.708235a157.400355 157.400355 0 0 0-93.41647-95.335987 607.846899 607.846899 0 0 0-266.812797-51.826947 609.766415 609.766415 0 0 0-266.172958 53.746463 143.3239 143.3239 0 0 0-95.975826 108.132764v34.551297a361.508945 361.508945 0 0 1 60.144851-35.191136 760.128543 760.128543 0 0 1 302.003933-53.746462z"  horiz-adv-x="1024" />

    
    <glyph glyph-name="yd-icon-Gold" unicode="&#58958;" d="M1024.31488 806.4C1011.51488 856.32 886.07488 896 733.75488 896S459.83488 857.6 448.31488 808.32a49.92 49.92 0 0 1 0-12.16V576a758.4 758.4 0 0 1-153.6 14.72C138.55488 591.36 13.11488 551.68 0.31488 501.76V-34.56a32 32 0 0 1 0-8.96C15.67488-90.88 139.83488-128 290.87488-128s274.56 37.12 285.44 84.48a32 32 0 0 1 0 8.96v46.72a786.56 786.56 0 0 1 153.6-14.08c150.4 0 274.56 37.12 288.64 84.48a32 32 0 0 1 0 8.96V640zM50.23488 506.24a186.24 186.24 0 0 0 51.84 24.32 640 640 0 0 0 188.16 24.96 704 704 0 0 0 153.6-15.36l35.84-9.6a182.4 182.4 0 0 0 49.92-23.68 30.72 30.72 0 0 0 11.52-12.8 30.72 30.72 0 0 0-11.52-12.8 182.4 182.4 0 0 0-49.92-23.68L443.83488 448a704 704 0 0 0-153.6-15.36 640 640 0 0 0-188.8 24.32 184.96 184.96 0 0 0-51.2 24.96 30.72 30.72 0 0 0-11.52 12.16 30.72 30.72 0 0 0 11.52 12.16z m493.44-448v-92.16a119.04 119.04 0 0 0-68.48-35.84 677.12 677.12 0 0 0-184.96-23.04 677.76 677.76 0 0 0-184.32 23.04 115.84 115.84 0 0 0-68.48 35.84v110.08a524.8 524.8 0 0 1 113.92-30.72 818.56 818.56 0 0 1 138.88-11.52 818.56 818.56 0 0 1 139.52 11.52l39.68 7.68a512 512 0 0 1 49.92 13.44l23.68 8.96v-17.92z m0 178.56v-95.36a106.24 106.24 0 0 0-64-33.28h-6.4l-30.72-7.68a736 736 0 0 0-153.6-15.36 677.76 677.76 0 0 0-183.68 21.76 115.84 115.84 0 0 0-66.56 35.2v109.44a526.08 526.08 0 0 1 113.92-30.72 818.56 818.56 0 0 1 138.88-11.52 818.56 818.56 0 0 1 139.52 11.52h14.72a563.2 563.2 0 0 1 79.36 20.48l19.84 7.68v-12.16z m0 175.36v-97.28a106.24 106.24 0 0 0-64-33.28h-6.4l-30.72-7.68a737.28 737.28 0 0 0-153.6-15.36 677.76 677.76 0 0 0-183.68 21.76A115.84 115.84 0 0 0 38.71488 314.88V424.32a526.08 526.08 0 0 1 113.92-30.72A818.56 818.56 0 0 1 290.87488 384a818.56 818.56 0 0 1 139.52 11.52h14.72a550.4 550.4 0 0 1 82.56 21.76l16.64 6.4v-10.88z m442.88-320a119.04 119.04 0 0 0-68.48-35.84 677.76 677.76 0 0 0-184.32-22.4 736.64 736.64 0 0 0-153.6 14.72v128h14.72a818.56 818.56 0 0 1 138.88-11.52 816.64 816.64 0 0 1 138.88 11.52 524.8 524.8 0 0 1 113.28 30.08v-109.44z m0 179.2a119.04 119.04 0 0 0-68.48-35.84 677.76 677.76 0 0 0-184.32-23.04 736.64 736.64 0 0 0-153.6 14.72v128h14.72a821.76 821.76 0 0 1 138.88-11.52 818.56 818.56 0 0 1 138.24 11.52A525.44 525.44 0 0 1 986.55488 384v-112.64z m0 174.72a119.04 119.04 0 0 0-68.48-35.84 677.76 677.76 0 0 0-184.32-23.04 737.28 737.28 0 0 0-153.6 15.36L576.31488 502.4a59.52 59.52 0 0 1-23.68 31.36l42.24-7.68a819.84 819.84 0 0 1 138.88-14.08 818.56 818.56 0 0 1 138.88 11.52 524.8 524.8 0 0 1 113.92 30.72V448z m0 172.8a119.04 119.04 0 0 0-68.48-35.84 678.4 678.4 0 0 0-184.32-23.04 677.76 677.76 0 0 0-184.32 21.76 132.48 132.48 0 0 0-68.48 36.48V728.96a525.44 525.44 0 0 1 113.92-30.08 820.48 820.48 0 0 1 138.88-11.52 819.84 819.84 0 0 1 138.24 11.52 524.8 524.8 0 0 1 113.92 30.72v-110.08z m-11.52 166.4a184.32 184.32 0 0 0-51.84-23.68 640 640 0 0 0-188.8-25.6 640 640 0 0 0-188.16 25.6 184.32 184.32 0 0 0-51.84 24.32 30.08 30.08 0 0 0-12.8 12.16 30.08 30.08 0 0 0 11.52 12.8A185.6 185.6 0 0 0 545.59488 832a640 640 0 0 0 188.16 25.6 640 640 0 0 0 188.8-25.6 184.96 184.96 0 0 0 51.84-24.32 30.08 30.08 0 0 0 11.52-12.8 30.08 30.08 0 0 0-11.52-12.16z"  horiz-adv-x="1024" />

    
    <glyph glyph-name="yd-icon-equal" unicode="&#58959;" d="M1724.631579-25.6a107.789474 107.789474 0 0 0-107.789474-102.4H107.789474a102.4 102.4 0 1 0 0 204.8h1509.052631a107.789474 107.789474 0 0 0 107.789474-102.4zM1724.631579 793.6a107.789474 107.789474 0 0 0-107.789474-102.4H107.789474a102.4 102.4 0 1 0 0 204.8h1509.052631a107.789474 107.789474 0 0 0 107.789474-102.4z"  horiz-adv-x="1726" />

    
    <glyph glyph-name="yd-icon-Trusteeship" unicode="&#58960;" d="M1447.342734 379.806628c-21.887981 29.183974-72.047937 52.895954-173.279849-6.383995a57.45595 57.45595 0 0 1-63.839944 68.39994 145.919872 145.919872 0 0 1-107.615906-41.951963c-45.59996 61.103947-91.19992 53.807953-186.959836 0l-91.19992-54.719952-16.415986-9.119992a136.79988 136.79988 0 0 1 28.271975 0c130.415886 0 233.471796 0 233.471796-113.9999 0-91.19992-101.231911-113.087901-154.127865-113.999901H674.879409A334.703707 334.703707 0 0 0 477.887582 202.878782a655.727426 655.727426 0 0 1 196.991827-47.423958h240.76779s98.495914 0 98.495914 56.543951-26.447977 56.543951-176.927846 56.54395A455.999601 455.999601 0 0 0 638.399441 329.646672s-99.407913 72.959936-130.415885 91.19992a235.295794 235.295794 0 0 1-256.271776 38.303966C174.191848 428.142585 0 346.062657 0 346.062657l161.423859-358.415686 81.167929 53.807953a103.967909 103.967909 0 0 0 129.503886 0c58.367949-30.095974 231.647797-120.383895 273.599761-141.359877a217.967809 217.967809 0 0 1 256.271776 31.007973c55.631951 32.831971 446.879609 292.751744 487.919573 321.935719 64.751943 45.59996 83.903927 85.727925 54.719952 124.031891M709.535379 729.102322a32.831971 32.831971 0 0 0 28.271975 33.743971v-72.959937a68.39994 68.39994 0 0 0-22.79998 17.327985 35.567969 35.567969 0 0 0-5.471995 21.887981z m45.59996-78.431931a45.59996 45.59996 0 0 0 30.095974-38.303967 32.831971 32.831971 0 0 0-30.095974-32.831971v72.047937z m43.775962-73.871936a75.695934 75.695934 0 0 0-42.863963-19.151983v-35.567969h-18.239984v32.831971a103.967909 103.967909 0 0 0-55.631951 12.767989v31.919972a91.19992 91.19992 0 0 1 56.543951-20.063982V658.878383a125.85589 125.85589 0 0 0-46.51196 31.919973 60.191947 60.191947 0 0 0 5.471996 75.695933 66.575942 66.575942 0 0 0 41.039964 20.975982V816.654245h17.327984v-28.271975a91.19992 91.19992 0 0 0 43.775962-9.119992v-29.183974a75.695934 75.695934 0 0 1-43.775962 14.591987v-82.079928a132.239884 132.239884 0 0 0 46.51196-31.007973 54.719952 54.719952 0 0 0 0-73.871935M745.103348 895.998176a234.383795 234.383795 0 1 1 233.471796-237.119793A233.471796 233.471796 0 0 1 745.103348 895.998176"  horiz-adv-x="1460" />

    
    <glyph glyph-name="yd-icon-Entry_and_ex" unicode="&#58962;" d="M146.927556 31.171519v48.975852a12.243963 12.243963 0 0 0 12.243963 12.243963h708.861014a12.243963 12.243963 0 0 0 12.243963-12.243963v-48.975852a12.243963 12.243963 0 0 0-12.243963-12.243963h-708.861014a12.243963 12.243963 0 0 0-12.243963 12.243963M73.463778 607.926617h135.328012a12.243963 12.243963 0 0 0 12.243963-12.243963v-48.975852a12.243963 12.243963 0 0 0-12.243963-12.243963h-122.43963a12.243963 12.243963 0 0 1-12.243963-12.243963v-564.511135a12.243963 12.243963 0 0 1 12.243963-12.243963h859.010666a12.243963 12.243963 0 0 1 12.243963 12.243963V522.218876a12.243963 12.243963 0 0 1-12.243963 12.243963h-122.43963a12.243963 12.243963 0 0 0-12.243963 12.243963v48.975852a12.243963 12.243963 0 0 0 12.243963 12.243963h134.683593A73.463778 73.463778 0 0 0 1031.070566 534.462839v-588.999061a73.463778 73.463778 0 0 0-73.463777-73.463778H73.463778A73.463778 73.463778 0 0 0 0-54.536222V534.462839a73.463778 73.463778 0 0 0 73.463778 73.463778M355.719345 239.963308h-48.975851a12.243963 12.243963 0 0 0-12.243963 14.82164V669.146432a12.243963 12.243963 0 0 1-12.243963 12.243963H173.993158a12.243963 12.243963 0 0 0-9.666286 20.621411L322.209552 890.826603a12.243963 12.243963 0 0 0 17.399316 0l159.171519-188.814797a12.243963 12.243963 0 0 0-9.021868-19.976992H380.85169a12.243963 12.243963 0 0 1-12.243963-12.243963v-415.005903a12.243963 12.243963 0 0 0-12.243962-12.243963m381.496109 644.419104v-420.161256a12.243963 12.243963 0 0 1 12.243963-12.243963h108.26241a12.243963 12.243963 0 0 0 9.666286-20.621411L708.861014 245.118661a12.243963 12.243963 0 0 0-17.399315 0L532.934599 433.933459a12.243963 12.243963 0 0 0 9.666287 19.976992h108.262409a12.243963 12.243963 0 0 1 12.243963 12.243963V883.093574a12.243963 12.243963 0 0 0 12.888382 12.888382h48.975852a12.243963 12.243963 0 0 0 12.243963-12.243963"  horiz-adv-x="1031" />

    
    <glyph glyph-name="yd-icon-Allocation_a1" unicode="&#58963;" d="M919.678904-127.99872h-255.99968a63.99992 63.99992 0 0 0-43.519946 17.919978 63.99992 63.99992 0 0 0-19.199976 46.079942v86.399892H533.759386a63.99992 63.99992 0 0 0-63.99992 63.99992V344.32069h-46.719941V256.0008a63.99992 63.99992 0 0 0-63.99992-63.99992h-255.99968a63.99992 63.99992 0 0 0-63.99992 63.99992V512.00048a63.99992 63.99992 0 0 0 24.959969 44.159945A63.99992 63.99992 0 0 0 104.319923 576.0004h255.99968a63.99992 63.99992 0 0 0 43.519946-17.919978 63.99992 63.99992 0 0 0 19.199976-46.079942v-88.31989h49.279938V684.800264a63.99992 63.99992 0 0 0 17.919978 43.519946 63.99992 63.99992 0 0 0 43.519945 17.919977h67.199916V832.00008a63.99992 63.99992 0 0 0 63.99992 63.99992h255.99968a63.99992 63.99992 0 0 0 63.99992-63.99992v-255.99968a63.99992 63.99992 0 0 0-63.99992-63.99992h-255.99968a63.99992 63.99992 0 0 0-63.99992 63.99992V666.240287H554.87936v-558.079302h46.079942V192.00088a63.99992 63.99992 0 0 0 63.99992 63.99992h255.99968a63.99992 63.99992 0 0 0 63.99992-63.99992v-255.99968a63.99992 63.99992 0 0 0-17.919977-43.519946 63.99992 63.99992 0 0 0-47.359941-20.479974z m-215.67973 300.799624a24.959969 24.959969 0 0 1-24.959969-24.959969v-171.519785a24.959969 24.959969 0 0 1 7.039991-17.279979 24.959969 24.959969 0 0 1 17.279978-7.039991h173.439784a24.31997 24.31997 0 0 1 24.959968 24.959969v170.879786a24.31997 24.31997 0 0 1-5.759992 17.279979 24.959969 24.959969 0 0 1-17.279979 7.039991h-174.719781z m-558.079303 319.9996a24.959969 24.959969 0 0 1-24.959969-24.959969v-169.599788a24.959969 24.959969 0 0 1 24.959969-24.959969h174.079783a24.959969 24.959969 0 0 1 24.959968 24.959969V469.760533a24.959969 24.959969 0 0 1-7.039991 17.279978 24.31997 24.31997 0 0 1-17.919977 7.679991h-172.799784z m558.079303 319.9996a24.31997 24.31997 0 0 1-17.279979-7.039991 24.959969 24.959969 0 0 1-7.039991-17.279979v-168.319789a24.31997 24.31997 0 0 1 24.31997-24.959969h172.799784a24.959969 24.959969 0 0 1 19.199976 7.67999 24.31997 24.31997 0 0 1 7.039991 17.279979V791.68013a24.31997 24.31997 0 0 1-24.959969 24.959969h-174.079782z"  horiz-adv-x="1024" />

    
    <glyph glyph-name="yd-icon-view-outline" unicode="&#58961;" d="M512 751.616c161.792-14.336 286.72-73.728 375.808-176.128S1022.976 413.696 1024 399.36c-1.024-14.336-47.104-73.728-136.192-176.128S673.792 62.464000000000055 512 47.10400000000004c-161.792 14.336-286.72 73.728-375.808 176.128S1.024 385.024 0 399.36c1.024 14.336 47.104 73.728 136.192 176.128S350.208 736.256 512 751.616z m0-64.512c-113.664-7.168-207.872-45.056-282.624-114.688S102.4 446.464 74.752 399.36c27.648-47.104 78.848-104.448 153.6-173.056S398.336 118.78399999999999 512 111.61599999999999c113.664 7.168 207.872 45.056 282.624 114.688S921.6 353.28 948.224 399.36c-27.648 47.104-78.848 104.448-153.6 173.056S625.664 679.936 512 687.104z m0-63.488c63.488-1.024 115.712-23.552 158.72-65.536s64.512-95.232 65.536-158.72c-1.024-63.488-23.552-115.712-65.536-158.72-41.984-41.984-95.232-64.512-158.72-65.536-63.488 1.024-115.712 23.552-158.72 65.536-41.984 41.984-64.512 95.232-65.536 158.72 1.024 63.488 23.552 115.712 65.536 158.72s95.232 63.488 158.72 65.536z m0-64.512c-45.056-1.024-82.944-17.408-112.64-47.104s-46.08-67.584-47.104-112.64c1.024-45.056 17.408-82.944 47.104-112.64s67.584-46.08 112.64-47.104c45.056 1.024 82.944 17.408 112.64 47.104s46.08 67.584 47.104 112.64c-1.024 45.056-17.408 82.944-47.104 112.64s-67.584 46.08-112.64 47.104z"  horiz-adv-x="1024" />

    
    <glyph glyph-name="yd-icon-view" unicode="&#58964;" d="M887.808 575.488C798.72 677.888 673.792 737.28 512 751.616c-161.792-15.36-286.72-73.728-375.808-176.128S1.024 413.696 0 399.36c1.024-14.336 47.104-73.728 136.192-176.128S350.208 61.440000000000055 512 47.10400000000004c161.792 15.36 286.72 73.728 375.808 176.128S1022.976 385.024 1024 399.36c-1.024 14.336-47.104 73.728-136.192 176.128zM624.64 286.72c-29.696-29.696-67.584-46.08-112.64-47.104-45.056 1.024-82.944 17.408-112.64 47.104s-46.08 67.584-47.104 112.64c1.024 45.056 17.408 82.944 47.104 112.64 29.696 29.696 67.584 46.08 112.64 47.104 45.056-1.024 82.944-17.408 112.64-47.104s46.08-67.584 47.104-112.64c-1.024-45.056-17.408-82.944-47.104-112.64z"  horiz-adv-x="1024" />

    
    <glyph glyph-name="yd-icon-head" unicode="&#58965;" d="M828.416 701.44C744.448 785.408 638.976 829.44 512 832.512c-126.976-4.096-233.472-48.128-317.44-132.096S66.56 510.976 63.488 384c4.096-126.976 48.128-233.472 132.096-317.44S385.024-61.44 512-64.512c126.976 4.096 233.472 48.128 317.44 132.096S957.44 257.024 960.512 384c-4.096 126.976-48.128 233.472-132.096 317.44z m-313.344-26.624c84.992 0 154.624-68.608 154.624-154.624 0-84.992-68.608-154.624-154.624-154.624S360.448 435.2 360.448 521.216s68.608 153.6 154.624 153.6z m0-614.4c-110.592 0-210.944 51.2-278.528 130.048 10.24 23.552 21.504 51.2 37.888 65.536 35.84 28.672 144.384 76.8 144.384 76.8l67.584-130.048 11.264 30.72-19.456 37.888 37.888 37.888 37.888-37.888-16.384-40.96 10.24-30.72 69.632 126.976s107.52-48.128 144.384-76.8c17.408-11.264 28.672-33.792 36.864-52.224-64.512-83.968-167.936-137.216-283.648-137.216z"  horiz-adv-x="1024" />

    
    <glyph glyph-name="urgent" unicode="&#58968;" d="M1019.656009 844.726235A78.074079 78.074079 0 0 1 942.861833 895.922353H191.985441A191.132172 191.132172 0 0 1 0.853269 703.936911v-750.876391A81.06052 81.06052 0 0 1 81.06052-128a75.087639 75.087639 0 0 1 55.46246 25.598059L998.324294 759.399372a72.954468 72.954468 0 0 1 21.331715 85.326863z m-554.624607-284.991722a11.519126 11.519126 0 0 0 9.385955-17.492006l-226.542821-341.307451a12.713703 12.713703 0 0 0-22.184984 12.372395l63.995147 235.075507H214.170425a11.519126 11.519126 0 0 0-11.092492 14.078932l67.834856 270.05952a11.519126 11.519126 0 0 0 11.092492 8.532687h181.319584a11.092492 11.092492 0 0 0 9.385954-17.492007l-102.392235-163.827577z"  horiz-adv-x="1025" />

    
    <glyph glyph-name="defuben" unicode="&#58969;" d="M515.477973 108.992a21.248 21.248 0 0 0-15.338666 6.528C313.557973 308.8 30.613973 600.682667 9.045973 619.669333a21.333333 21.333333 0 0 0 19.392 37.546667c6.208-2.176 12.032-4.202667 486.997334-496.149333l471.872 491.349333a21.333333 21.333333 0 0 0 30.784-29.568l-487.232-507.306667a21.333333 21.333333 0 0 0-15.36-6.570666l-0.021334 0.021333z"  horiz-adv-x="1024" />

    
    <glyph glyph-name="defuben1" unicode="&#58970;" d="M259.161652-127.978683a21.359415 21.359415 0 0 0-20.208309 28.116835c2.131678 6.352401 4.135456 12.3211 495.743076 486.981879L243.813569 858.540659A21.316782 21.316782 0 1 0 273.358628 889.279458l506.827803-486.768711a21.295465 21.295465 0 0 0 0.042634-30.717482c-192.959508-186.244722-484.402548-468.819981-503.587652-490.690999a21.380732 21.380732 0 0 0-17.479761-9.080949z"  horiz-adv-x="1024" />

    
    <glyph glyph-name="-e-Icon" unicode="&#58950;" d="M630.125714 423.716571h-89.965714v314.514286h89.965714v-314.514286z m0-157.476571h-89.965714V345.014857h89.965714v-78.701714zM1080.246857 896H90.038857A106.569143 106.569143 0 0 1 0 817.298286V-127.268571l270.116571 236.105142h810.130286c37.376-31.451429 90.038857 14.628571 90.038857 78.774858V817.298286A106.130286 106.130286 0 0 1 1080.246857 896z"  horiz-adv-x="1170" />

    
    <glyph glyph-name="yd-icon-wait" unicode="&#58953;" d="M510.723192 359.740648c-71.501247 0-127.680798-56.179551-127.680798-127.680798v-102.144638h255.361596v102.144638c0 71.501247-56.179551 127.680798-127.680798 127.680798zM510.723192 410.812968c71.501247 0 127.680798 56.179551 127.680798 127.680798v102.144638H383.042394v-102.144638c0-71.501247 56.179551-127.680798 127.680798-127.680798zM980.588529 584.458853c-25.53616 61.286783-63.840399 117.466334-109.805487 163.431421-45.965087 45.965087-99.591022 81.715711-163.431421 109.805487S582.224439 896 510.723192 896s-137.895262-12.76808-199.182045-40.857855S196.628429 793.855362 148.109726 747.890274c-45.965087-48.518703-81.715711-102.144638-107.251871-163.431421S0 456.778055 0 385.276808s12.76808-137.895262 40.857855-199.182045 63.840399-117.466334 109.805487-163.431421 99.591022-81.715711 163.431421-109.805487 127.680798-40.857855 199.182045-40.857855 137.895262 12.76808 199.182045 40.857855 117.466334 63.840399 163.431421 109.805487c45.965087 45.965087 81.715711 99.591022 109.805487 163.431421s40.857855 127.680798 40.857855 199.182045-17.875312 137.895262-45.965087 199.182045zM740.548628 640.638404h-51.072319v-102.144638c0-63.840399-33.197007-120.01995-86.822942-153.216958 53.625935-33.197007 86.822943-89.376559 86.822942-153.216958v-102.144638h51.072319v-51.072319H280.897756v51.072319h51.072319v102.144638c0 63.840399 33.197007 120.01995 86.822942 153.216958-53.625935 33.197007-86.822943 89.376559-86.822942 153.216958v102.144638h-51.072319V691.710723h459.650872v-51.072319z"  horiz-adv-x="1029" />

    
    <glyph glyph-name="yd-icon-basket-click" unicode="&#58967;" d="M1093.352172 523.35874H23.262812a23.262812 23.262812 0 0 1-23.262812-23.262812v-93.051248a23.262812 23.262812 0 0 1 23.262812-23.262812h27.072098l89.619984-492.706362A23.262812 23.262812 0 0 1 162.839685-128h790.935614a23.262812 23.262812 0 0 1 22.855713 19.075506L1066.221917 383.781868H1093.352172a23.262812 23.262812 0 0 1 23.262812 23.262812v93.051248a23.262812 23.262812 0 0 1-23.262812 23.262812z m-281.799891-277.118249L527.367952-37.856603a23.262812 23.262812 0 0 0-32.887801 0l-189.417448 189.475605a23.262812 23.262812 0 0 0 32.887801 32.887801L510.938591 11.576873l267.725889 267.52234a23.262812 23.262812 0 0 0 32.887801-32.887801zM1070.089359 430.307492H46.525624v46.525624h1023.563735zM162.839685 569.884365a23.262812 23.262812 0 0 1 16.429361 6.833451l279.153746 279.153746a23.262812 23.262812 0 0 1-32.887801 32.8878l-279.153745-279.153745A23.262812 23.262812 0 0 1 162.839685 569.884365zM937.316859 576.717816a23.262812 23.262812 0 1 1 32.887801 32.887801l-279.153746 279.153745a23.262812 23.262812 0 1 1-32.887801-32.8878zM778.66448 279.099213l-267.725889-267.52234-172.959009 173.017165a23.262812 23.262812 0 0 1-32.887801-32.8878L494.480151-37.856603a23.262812 23.262812 0 0 1 32.887801 0l284.184329 284.155251A23.262812 23.262812 0 0 1 778.66448 279.099213z"  horiz-adv-x="1117" />

    
    <glyph glyph-name="yd-icon-basket-linezi" unicode="&#58971;" d="M954.169756-128H162.907031a23.272433 23.272433 0 0 0-22.894256 19.083395l-93.089732 511.993527A23.272433 23.272433 0 0 0 69.817299 430.538393h977.442189a23.272433 23.272433 0 0 0 22.923346-27.43238l-93.089732-511.993527A23.272433 23.272433 0 0 0 954.169756-128zM182.339513-81.455134h752.426851l84.624385 465.448661H97.715128zM1093.804354 383.993527H23.272433a23.272433 23.272433 0 0 0-23.272433 23.272433v93.089733a23.272433 23.272433 0 0 0 23.272433 23.272433h1070.531921a23.272433 23.272433 0 0 0 23.272433-23.272433v-93.089733a23.272433 23.272433 0 0 0-23.272433-23.272433zM46.544866 430.538393h1023.987055v46.544867H46.544866zM162.907031 570.172992a23.272433 23.272433 0 0 0-16.465246 39.737679l279.269197 279.269197a23.272433 23.272433 0 0 0 32.901402-32.901402l-279.269197-279.269197A23.272433 23.272433 0 0 0 162.907031 570.172992zM954.169756 570.172992a23.272433 23.272433 0 0 0-16.465247 6.807187l-279.269197 279.269196a23.272433 23.272433 0 0 0 32.930493 32.930493l279.269197-279.269197A23.272433 23.272433 0 0 0 954.169756 570.172992z"  horiz-adv-x="1117" />

    
    <glyph glyph-name="yd-icon-select" unicode="&#58966;" d="M1296.1792 896l-764.928-753.9712-394.24 388.608L0 395.5712 531.2512-128l901.9392 889.0368z"  horiz-adv-x="1433" />

    
    <glyph glyph-name="yd-icon-permissions" unicode="&#58972;" d="M89.81632 404.864C-30.69568 279.68-30.69568 85.12 94.42432-35.328 154.64832-95.552 233.43232-128 312.21632-128c78.72 0 157.568 32.448 217.792 92.672 111.168 106.56 120.448 282.624 27.776 403.136l134.4 134.4 166.784 166.72 148.288 148.288a44.8 44.8 0 0 1 0 64.896 44.8 44.8 0 0 1-64.896 0l-115.84-111.232L738.58432 858.944a44.8 44.8 0 0 1-64.896 0 44.8 44.8 0 0 1 0-64.896l88.064-88-101.952-101.952L529.94432 733.824a44.8 44.8 0 0 1-64.896 0 44.8 44.8 0 0 1 0-64.896l129.728-129.728-101.888-101.888a310.848 310.848 0 0 1-403.2-32.448z m64.832-375.296c-83.392 83.392-83.392 222.4 4.672 310.4a218.048 218.048 0 0 0 152.896 64.896c55.616 0 111.168-23.168 152.96-64.896 83.328-88 83.328-227.008 0-310.4-83.456-88.064-222.464-88.064-310.528 0z"  horiz-adv-x="1024" />

    
    <glyph glyph-name="yd-icon-update" unicode="&#58973;" d="M512 896C229.6832 896 0 666.282667 0 384c0-282.3168 229.6832-512 512-512s512 229.6832 512 512c0 282.282667-229.6832 512-512 512z m0-814.318933a280.712533 280.712533 0 0 0-280.712533 280.712533H339.285333a172.714667 172.714667 0 1 1 345.429334 0A172.714667 172.714667 0 0 1 512 535.1424v-107.963733L339.285333 578.286933 512 729.429333v-86.357333a280.712533 280.712533 0 1 0 0-561.425067z"  horiz-adv-x="1024" />

    
    <glyph glyph-name="yd-icon-personal" unicode="&#58974;" d="M661.504 320.832a309.376 309.376 0 0 1 150.592 266.304C812.096 757.76 675.392 896 506.816 896c-168.576 0-305.28-138.24-305.28-308.864 0-113.472 60.48-212.608 150.592-266.24C167.488 256.448 34.304 80.064 32-128h74.624c2.944 221.12 180.992 399.424 400.192 399.424 219.2 0 397.248-178.304 400.128-399.424h74.688c-2.304 208.128-135.488 384.512-320.128 448.832z m-385.28 266.304c0 128.896 103.232 233.344 230.592 233.344 127.36 0 230.656-104.448 230.656-233.344 0-128.832-103.296-233.344-230.656-233.344S276.16 458.304 276.16 587.136z"  horiz-adv-x="1024" />

    
    <glyph glyph-name="-e-urgent" unicode="&#58975;" d="M699.129006 373.54274899999996l-166.011562 128.251528a26.821502 26.821502 0 0 0-10.05461 16.573534 34.030989 34.030989 0 0 0 0.276225 14.750444l78.807153 326.747215A30.108586 30.108586 0 0 1 587.395767 894.504156a26.462409 26.462409 0 0 1-32.926087-14.197994L318.158713 433.677054a27.843536 27.843536 0 0 1 6.242698-38.837314l0.497206-0.331471L490.910178 266.201497A30.136209 30.136209 0 0 0 500.716186 235.04325400000005L421.964279-91.84207400000003a30.219076 30.219076 0 0 1 14.695199-34.638685A26.407164 26.407164 0 0 1 469.557943-112.22752100000002l236.310966 446.656731a27.926404 27.926404 0 0 1-6.436055 38.947804z"  horiz-adv-x="1024" />

    
    <glyph glyph-name="yd-icon-members" unicode="&#58976;" d="M629.357714 321.426286A308.955429 308.955429 0 0 1 779.702857 587.337143c0 170.313143-136.484571 308.406857-304.859428 308.406857-168.338286 0-304.822857-138.093714-304.822858-308.406857a308.955429 308.955429 0 0 1 150.381715-265.947429C136.009143 257.097143 2.998857 81.042286 0.694857-126.829714h74.569143c2.925714 220.818286 180.662857 398.884571 399.616 398.884571 218.953143 0 396.726857-178.102857 399.652571-398.884571h74.532572c-2.304 207.872-135.277714 384-319.707429 448.256zM244.553143 587.337143c0 128.694857 103.131429 233.033143 230.326857 233.033143 127.232 0 230.326857-104.338286 230.326857-233.033143 0-128.731429-103.131429-233.069714-230.326857-233.069714s-230.326857 104.338286-230.326857 233.069714zM907.922286 317.44a309.101714 309.101714 0 0 1 129.206857 252.123429c0 170.313143-136.484571 308.406857-304.859429 308.406857-6.692571 0-13.348571-0.219429-19.968-0.658286l12.214857-74.861714c2.56 0.073143 5.156571 0.146286 7.753143 0.146285 127.232 0 230.363429-104.338286 230.363429-233.033142 0-105.325714-69.046857-194.267429-163.803429-223.158858l0.182857-1.060571c-2.377143 0.329143-4.754286 0.658286-7.131428 0.914286l7.094857-76.982857c189.805714-29.659429 335.506286-194.413714 338.139429-394.130286h74.532571c-2.194286 201.801143-127.634286 373.686857-303.725714 442.331428z"  horiz-adv-x="1243" />

    
    <glyph glyph-name="yd-icon-set" unicode="&#58977;" d="M690.138074-107.823407c-19.342222 0-38.115556 7.964444-50.213926 21.390222-16.535704 18.090667-68.873481 65.232593-111.729778 65.232592-42.552889 0-95.725037-47.407407-110.971259-63.981037-12.136296-13.160296-30.757926-21.010963-49.872592-21.010963-9.102222 0-17.711407 1.744593-25.562075 5.195852l-1.403259 0.606815-130.237629 72.817778-1.289482 0.910222a62.539852 62.539852 0 0 0-20.973037 75.510519c0.075852 0.18963 12.022519 27.685926 12.022519 52.792888a138.24 138.24 0 0 1-138.050371 138.050371h-5.461333c-21.845333 0-39.594667 19.380148-45.24563 49.341629C10.695111 291.460741 0 348.34963 0 393.102222c0 44.828444 10.619259 101.679407 11.112296 104.106667 5.726815 30.340741 23.893333 49.834667 46.08 49.303704h4.589037a138.24 138.24 0 0 1 138.050371 138.05037c0 25.106963-11.908741 52.603259-12.022519 52.906667a62.388148 62.388148 0 0 0 21.162667 75.434666l1.365333 0.910223L347.780741 889.325037 349.259852 889.931852c7.736889 3.299556 16.19437 4.968296 25.182815 4.968296 19.076741 0 37.774222-7.661037 49.98637-20.555852 16.270222-17.028741 67.697778-61.326222 109.302519-61.326222 41.225481 0 92.34963 43.425185 108.544 60.150519 12.136296 12.629333 30.72 20.176593 49.607111 20.176592 9.140148 0 17.825185-1.744593 25.675852-5.157926l1.365333-0.606815 132.740741-73.765925 1.327407-0.910223c23.779556-16.57363 32.805926-49.038222 21.048889-75.472592-0.075852-0.227556-12.022519-27.761778-12.022519-52.830815a138.24 138.24 0 0 1 138.050371-138.05037h4.626963c22.186667 0.493037 40.353185-18.962963 46.08-49.34163 0.455111-2.427259 11.112296-59.278222 11.112296-104.068741 0-44.828444-10.619259-101.679407-11.112296-104.106667-5.726815-30.340741-23.893333-49.758815-46.08-49.303703h-4.589037a138.24 138.24 0 0 1-138.050371-138.050371c0-25.106963 11.908741-52.603259 12.022519-52.86874 11.719111-26.43437 2.654815-58.898963-21.124741-75.472593l-1.327407-0.910222-135.016297-74.600296-1.365333-0.606815a62.957037 62.957037 0 0 0-25.106963-5.044148z m-4.096 63.601777c0.606815-0.379259 2.275556-1.061926 4.096-1.061926h0.18963l126.141629 69.707852c-3.034074 7.092148-16.990815 41.415111-16.990814 77.217185a200.855704 200.855704 0 0 0 190.08474 200.324741c1.517037 8.419556 9.784889 55.675259 9.784889 91.136 0 35.498667-8.229926 82.75437-9.784889 91.173926a200.855704 200.855704 0 0 0-190.08474 200.324741c0 35.84 13.994667 70.238815 16.990814 77.255111L692.41363 830.767407h-0.530963a9.860741 9.860741 0 0 1-4.740741-1.175703c-2.085926-2.161778-20.100741-20.404148-45.89037-38.570667-38.305185-26.927407-74.448593-40.542815-107.52-40.542815-33.374815 0-69.859556 13.918815-108.354371 41.339259A351.194074 351.194074 0 0 0 379.259259 831.146667a9.936593 9.936593 0 0 1-5.233778 1.251555L245.494519 761.742222c3.034074-7.205926 16.952889-41.453037 16.952888-77.179259a200.855704 200.855704 0 0 0-190.08474-200.324741c-1.517037-8.419556-9.784889-55.675259-9.784889-91.173926 0-35.460741 8.267852-82.678519 9.784889-91.136a200.855704 200.855704 0 0 0 190.08474-200.32474c0-35.915852-14.032593-70.352593-17.02874-77.293037l121.66637-68.001186h0.265482a8.571259 8.571259 0 0 1 4.058074 1.024c2.275556 2.427259 20.442074 21.655704 46.610963 40.846223 38.987852 28.596148 76.079407 43.083852 110.174814 43.083851 34.436741 0 71.755852-14.791111 111.009186-43.880296a356.996741 356.996741 0 0 0 46.838518-41.642667z m-157.392593 254.179556a184.054519 184.054519 0 0 0-183.864888 183.864889 184.054519 184.054519 0 0 0 183.864888 183.864889 184.092444 184.092444 0 0 0 183.864889-183.864889 184.092444 184.092444 0 0 0-183.864889-183.864889z m0 305.189926a121.438815 121.438815 0 0 1-121.362962-121.362963c0-66.863407 54.46163-121.287111 121.362962-121.287111 66.901333 0 121.325037 54.423704 121.325038 121.325037a121.476741 121.476741 0 0 1-121.362963 121.325037z"  horiz-adv-x="1062" />

    
    <glyph glyph-name="ziyuan" unicode="&#58978;" d="M959.03209 597.49387H21.36056a21.35926 21.35926 0 0 0 0 42.718521h937.67153a21.35926 21.35926 0 0 0 0-42.718521zM277.030907 597.49387a21.35926 21.35926 0 0 0-17.247603 33.160252l170.019712 255.697046a21.35926 21.35926 0 0 0 35.803461-23.575284L294.865889 607.078839a21.09227 21.09227 0 0 0-17.834982-9.584969zM703.361743 597.49387a21.919941 21.919941 0 0 0-17.88838 9.53157l-170.019713 255.670347a20.451492 20.451492 0 0 0 4.35195 28.59471c0.453884 0.320389 0.907769 0.640778 1.388352 0.934467a21.09227 21.09227 0 0 0 29.368983-5.740301v-0.186893L721.250124 630.600724a21.09227 21.09227 0 0 0-5.927195-29.235488l-0.453884-0.293689a19.169936 19.169936 0 0 0-11.507302-3.577677zM933.481075 631.828881a21.35926 21.35926 0 0 1-17.247603 8.303413H64.185877a21.038871 21.038871 0 0 1-16.606825-8.303413 19.703918 19.703918 0 0 1-3.844667-18.529158l110.587571-405.825947a107.063293 107.063293 0 0 1 102.898237-78.682175h236.50041a20.958774 20.958774 0 0 1 21.09227 18.288867 275.427662 275.427662 0 0 0 310.72384 234.951864q12.842255-1.788838 25.497617-4.779135a21.35926 21.35926 0 0 1 25.577714 15.138376l60.713698 221.095044a24.029168 24.029168 0 0 1-3.817968 18.075274zM788.798785 341.90362100000004h-0.453884a234.951864 234.951864 0 1 1 0.453884 0z m99.90794-334.672911a20.451492 20.451492 0 0 0-14.71119-6.381079 21.866543 21.866543 0 0 0-15.351969 6.381079l-70.298665 70.298666-69.657888-70.298666a22.053436 22.053436 0 0 0-30.677238 0 21.35926 21.35926 0 0 0 0 30.089858l70.298666 70.298666-70.298666 70.298666A21.35926 21.35926 0 0 0 716.711281 209.369411c0.453884-0.427185 0.907769-0.85437 1.308255-1.308255L788.3716 137.73579099999995l70.298665 70.298666a21.35926 21.35926 0 0 0 30.03646-30.116557l-69.657888-70.298666 69.657888-70.298666a21.35926 21.35926 0 0 0 0.026699-30.089858z"  horiz-adv-x="1024" />

    
    <glyph glyph-name="ziyuan1" unicode="&#58979;" d="M959.675207 597.285216H21.448769a21.328782 21.328782 0 1 0 0 42.657563h938.226438a21.328782 21.328782 0 1 0 0-42.657563zM277.154199 597.285216a19.782445 19.782445 0 0 0-11.517542 3.572571 20.47563 20.47563 0 0 0-6.691906 28.153991q0.453237 0.719846 0.933135 1.386371l170.123693 255.945378a21.328782 21.328782 0 1 0 35.832353-23.594964l-170.763557-255.945378a20.982189 20.982189 0 0 0-17.809533-9.517969zM703.729829 597.285216a21.808679 21.808679 0 0 0-17.916176 9.517969l-170.01705 255.945378a21.195477 21.195477 0 0 0 35.192489 23.594964l170.763557-255.945378a21.168816 21.168816 0 0 0-6.052041-29.327074l-0.346593-0.213288A19.782445 19.782445 0 0 0 703.969778 597.285216zM933.974026 631.464588a21.328782 21.328782 0 0 1-17.143008 8.478191H64.292959a23.141728 23.141728 0 0 1-17.276313-8.371547 21.328782 21.328782 0 0 1-3.199317-18.662684l110.643054-406.179983A107.123805 107.123805 0 0 1 257.425076 128.05202199999997h236.642831a20.982189 20.982189 0 0 1 21.115493 18.28943 275.594518 275.594518 0 0 0 310.84033 235.123156q12.850591-1.786285 25.514555-4.772315A21.328782 21.328782 0 0 1 877.266128 391.995694l60.760366 221.286108a23.834913 23.834913 0 0 1-3.865841 18.28943zM789.284904 341.339838h-0.26661a234.616597 234.616597 0 1 1 0.26661 0z m145.888866-161.352233a21.328782 21.328782 0 0 0-2.932708-2.932707l-170.763557-170.630252A20.528952 20.528952 0 0 0 746.627341 0.07933300000001964a22.181933 22.181933 0 0 0-15.356723 6.398635l-85.048516 85.315126a21.328782 21.328782 0 0 0 30.046921 30.126904L746.627341 51.45503599999995l155.406834 155.486817a21.328782 21.328782 0 0 0 32.979629-27.060892z"  horiz-adv-x="1024" />

    
    <glyph glyph-name="yd-icon-screeningse" unicode="&#58980;" d="M766.870201-64.077193V264.460246a231.16034 231.16034 0 0 1 127.811684 0v-328.537439a63.922807 63.922807 0 0 0-127.811684 0zM639.160305 511.126278a191.73449 191.73449 0 1 0 191.734491-191.73449A191.73449 191.73449 0 0 0 639.160305 511.126278z m255.623368 0a63.922807 63.922807 0 1 1-63.922807-63.922807A63.922807 63.922807 0 0 1 894.783673 511.126278zM766.870201 830.604594a63.922807 63.922807 0 1 0 127.811684 0v-72.914072a231.16034 231.16034 0 0 1-127.811684 0z m-511.246735 0v-328.605298a229.565663 229.565663 0 0 1-127.811684 0V830.604594a63.922807 63.922807 0 1 0 127.811684 0zM383.469079 255.435052a191.73449 191.73449 0 1 0-191.734491 191.73449A191.73449 191.73449 0 0 0 383.469079 255.435052z m-255.623368 0a63.922807 63.922807 0 1 1 63.922807 63.922806 63.922807 63.922807 0 0 1-63.888878-63.922806z m127.811684-319.546175a63.922807 63.922807 0 0 0-127.811684 0V8.972596a231.16034 231.16034 0 0 1 127.811684 0z"  horiz-adv-x="1024" />

    
    <glyph glyph-name="fuzhiziyuan" unicode="&#58984;" d="M682.666667-128H85.333333a21.333333 21.333333 0 0 0-21.333333 21.333333v853.333334A21.333333 21.333333 0 0 0 85.333333 768h384a21.333333 21.333333 0 0 0 14.933334-6.4l213.333333-213.333333a21.333333 21.333333 0 0 0 6.4-14.933334v-640a21.333333 21.333333 0 0 0-21.333333-21.333333zM106.666667-85.333333h554.666666V524.373333L460.373333 725.333333H106.666667zM682.666667 512h-213.333334a21.333333 21.333333 0 0 0-21.333333 21.333333v213.333334a21.333333 21.333333 0 0 0 42.666667 0V554.666667h192a21.333333 21.333333 0 0 0 0-42.666667zM938.666667 0h-256a21.333333 21.333333 0 0 0 0 42.666667H917.333333V652.373333L716.373333 853.333333H362.666667v-106.666666a21.333333 21.333333 0 0 0-42.666667 0v128a21.333333 21.333333 0 0 0 21.333333 21.333333h384a21.333333 21.333333 0 0 0 14.933334-6.4l213.333333-213.333333a21.333333 21.333333 0 0 0 6.4-14.933334v-640a21.333333 21.333333 0 0 0-21.333333-21.333333zM938.666667 640h-213.333334a21.333333 21.333333 0 0 0-21.333333 21.333333v213.333334a21.333333 21.333333 0 0 0 42.666667 0V682.666667h192a21.333333 21.333333 0 0 0 0-42.666667z"  horiz-adv-x="1024" />

    
    <glyph glyph-name="daochuziyuan" unicode="&#58986;" d="M445.937646 553.174888a63.342369 63.342369 0 0 0-47.493913 21.354251L319.304363 663.959714v-389.470669a64.11421 64.11421 0 1 0-128.22842 0V663.959714L111.885118 574.529139A63.393825 63.393825 0 1 0 16.897291 658.453919l189.975653 216.115315a63.342369 63.342369 0 0 0 94.987826 0l189.975652-216.115315a64.11421 64.11421 0 0 0-47.493913-107.697464zM1043.959594 555.5933210000001a64.11421 64.11421 0 0 0 47.493913-107.646009l-189.975652-216.115314a63.342369 63.342369 0 0 0-94.987827 0l-189.975652 216.115314a63.393825 63.393825 0 0 0 94.987826 83.924781l79.13937-89.482032V831.860731a64.11421 64.11421 0 1 0 128.22842 0v-389.47067l79.13937 89.430576a63.342369 63.342369 0 0 0 47.493913 21.354251zM1044.371242-128H64.391204A64.11421 64.11421 0 0 0 0.276995-63.88579000000004v322.166186a64.11421 64.11421 0 1 0 128.228419 0v-257.280136h851.751618v257.280136a64.11421 64.11421 0 0 0 128.22842 0v-321.497258A64.11421 64.11421 0 0 0 1045.143083-128z"  horiz-adv-x="1102" />

    
    <glyph glyph-name="yd-icon-backziyuan" unicode="&#58988;" d="M222.900687-127.3604h575.640225A218.103685 218.103685 0 0 1 1023.6802 84.986883V512.23985a217.464085 217.464085 0 0 1-221.941287 212.347283H552.934416l101.69644 97.858838a41.574016 41.574016 0 0 1 0 58.843223 45.411618 45.411618 0 0 1-63.960025 0L413.501562 712.434728a41.574016 41.574016 0 0 1 0-58.843223l178.448469-172.052467a45.411618 45.411618 0 0 1 63.960025 0 41.574016 41.574016 0 0 1 0 58.843223L551.655215 640.1599h249.444098a131.118051 131.118051 0 0 0 133.676452-127.92005v-427.252967a131.118051 131.118051 0 0 0-133.676452-127.92005h-575.640225a131.118051 131.118051 0 0 0-133.676452 127.92005v127.92005a44.772017 44.772017 0 0 1-88.904435 0v-127.92005A218.103685 218.103685 0 0 1 222.900687-127.3604z m12.792005 780.312305l177.80887-171.412867a46.690818 46.690818 0 0 1 63.960025 0 41.574016 41.574016 0 0 1 0 58.843223l-147.108058 141.991256 146.468457 140.712055a41.574016 41.574016 0 0 1 0 58.843223 46.051218 46.051218 0 0 1-63.960025 0L235.692692 713.074329a41.574016 41.574016 0 0 1 0-58.843223z"  horiz-adv-x="1024" />

    
    <glyph glyph-name="yd-icon-message1" unicode="&#58981;" d="M86.012802 579.247463v-621.234661h1024V579.247463c-128.339735-91.488525-383.700234-274.452251-512-365.91413-128.339735 91.475202-383.700234 274.452251-512 365.91413zM0-128V896h1194.666667v-1024z m86.012802 812.378663c128.339735-91.488525 383.700234-274.452251 512-365.91413 128.339735 91.475202 383.700234 274.452251 512 365.91413V811.359459H86.012802z m0 0"  horiz-adv-x="1194" />

    
    <glyph glyph-name="yd-icon-set-" unicode="&#58982;" d="M646.12-38.41c-16.29 0-32.11 6.71-42.3 18-13.93 15.25-58 55-94.14 55-35.85 0-80.65-40-93.49-53.91-10.23-11.09-25.92-17.7-42-17.7a53.17 53.17 0 0 0-21.54 4.37l-1.18 0.52-109.75 61.34-1.09 0.76A52.69 52.69 0 0 0 223 93.59c0.06 0.16 10.12 23.33 10.12 44.48a116.47 116.47 0 0 1-116.34 116.31h-4.6c-18.4 0-33.36 16.33-38.12 41.58-0.38 2-9.39 50-9.39 87.67s8.94 85.67 9.33 87.72c4.83 25.56 20.13 42 38.82 41.53h3.87A116.47 116.47 0 0 1 233 629.2c0 21.15-10 44.31-10.13 44.57a52.57 52.57 0 0 0 17.83 63.56l1.15 0.76 115.8 63.62 1.24 0.51a53.78 53.78 0 0 0 21.22 4.19c16.08 0 31.83-6.45 42.12-17.32 13.71-14.34 57-51.67 92.09-51.67 34.73 0 77.8 36.59 91.45 50.68 10.23 10.64 25.88 17 41.8 17a54 54 0 0 0 21.63-4.35l1.15-0.51 111.83-62.15 1.12-0.76c20-14 27.64-41.32 17.74-63.59-0.07-0.19-10.13-23.39-10.13-44.51a116.47 116.47 0 0 1 116.34-116.31h3.9c18.69 0.41 34-16 38.82-41.57 0.38-2.05 9.36-50 9.36-87.68S950.39 298 950 296c-4.83-25.57-20.13-41.93-38.82-41.55h-3.87A116.47 116.47 0 0 1 791 138.1c0-21.15 10-44.32 10.13-44.54 9.87-22.27 2.23-49.62-17.8-63.59l-1.12-0.76-113.78-62.85-1.15-0.52a53.23 53.23 0 0 0-21.16-4.25z m-3.45 53.59a7.35 7.35 0 0 1 3.45-0.9h0.16L752.56 73c-2.55 6-14.32 34.89-14.32 65.05a169.24 169.24 0 0 0 160.16 168.8c1.27 7.09 8.24 46.91 8.24 76.78s-6.93 69.73-8.24 76.82a169.24 169.24 0 0 0-160.16 168.78c0 30.2 11.79 59.18 14.32 65.09L648 752.38h-0.44a8.32 8.32 0 0 1-4-1 294.35 294.35 0 0 0-38.67-32.5c-32.27-22.69-62.72-34.16-90.58-34.16-28.12 0-58.86 11.73-91.29 34.83a296.48 296.48 0 0 0-38.86 33.13 8.3 8.3 0 0 1-4.41 1.06L271.5 694.22c2.56-6.07 14.28-34.92 14.28-65a169.22 169.22 0 0 0-160.15-168.8c-1.27-7.1-8.24-46.91-8.24-76.82s7-69.66 8.24-76.78A169.22 169.22 0 0 0 285.78 138c0-30.26-11.82-59.27-14.34-65.12l102.5-57.29h0.23a7.11 7.11 0 0 1 3.41 0.86 303.73 303.73 0 0 0 39.28 34.41C449.7 75 481 87.2 509.68 87.2c29 0 60.46-12.46 93.53-37a300.81 300.81 0 0 0 39.46-35.08zM510.06 229.33A154.91 154.91 0 1 0 665 384.24a155.06 155.06 0 0 0-154.94-154.91z m0 257.13a102.22 102.22 0 1 1 102.23-102.22 102.32 102.32 0 0 1-102.23 102.22z m0 0"  horiz-adv-x="1024" />

    
    </font>
</defs>
</svg>
